<?xml version="1.0" encoding="UTF-8"?>
<svg id="Layer_1" xmlns="http://www.w3.org/2000/svg" viewBox="0 0 572.85 407.76">
  <defs>
    <style>
      .cls-1 {
        fill: #010101;
      }

      .cls-2 {
        fill: #c21718;
      }
    </style>
  </defs>
  <g>
    <path class="cls-1" d="M69.53,248.41c-.47-.62-1.13-1.01-1.93-1.19-.68-.15-1.45-.18-2.31-.06-.71.09-1.48.3-2.31.56-1.22.41-2.52,1.01-3.91,1.78-.83.47-1.72,1.01-2.64,1.63.15,1.54.41,3.38.83,5.48.18.92.41,2.1.74,3.5.12.62.27,1.27.41,1.96.3,1.33.62,2.79,1.01,4.42,1.72-.83,3.26-1.81,4.62-2.99.65-.5,1.24-1.07,1.81-1.69.09-.09.21-.21.3-.33,1.84-2.1,3.11-4.21,3.79-6.31.3-.89.47-1.72.56-2.49.15-1.1.06-2.04-.24-2.9-.18-.53-.41-.98-.74-1.36Z"/>
    <path class="cls-1" d="M571.67,141.84c-1.27-3.7-3.44-6.76-6.43-9.07-1.13-.86-2.34-1.6-3.62-2.19l1.66-.95-1.3-5.81c-1.45-6.49-3.29-18.4-5.45-35.41-2.19-17.1-3.7-30.94-4.5-41.1l-.83-10.46-9.93,3.47-29.84,10.46-7.02,2.46-.03-.47-9.9,3.5-29.84,10.46-2.43.86c.15-1.04.3-2.07.44-3.11,1.66-11.23,3.2-22.46,4.71-33.7l.95-7.02-6.67,2.76c-11.8,4.83-23.47,9.96-35.21,14.94l-30.97,13.78-17.93-50.47-1.69-4.74-3.65,3.35-60.69,55.3-53.14-42.59-1.63-1.3-.65,1.96-22.67,66.53c-.24.62.12,1.3.74,1.51.62.24,1.3-.09,1.54-.74l22.43-64.37,51.95,43.98,1.54,1.3,1.57-1.36,59.6-51.98,16.45,50.47,1.36,4.18,4.12-1.75,35.24-14.91c9.48-4.24,19.03-8.39,28.51-12.65-.92,8.92-1.84,17.81-2.67,26.7-1.13,11.29-1.96,22.61-2.96,33.9l-.27,3.2,2.99-.59c3.35-.68,6.67-1.39,10.02-2.1l1.93,6.85-29.34,4.39c-1.39-.12-2.76-.12-4.15-.03l9.6-55.21-6.52,3.79.77-5.96-5.25,2.9-55.89,30.67-.68-2.87,2.13-.74-8.54-43.83-3.14,4.74-.86-3.56-1.22-5.13-4.12,3.35-49.37,40.42-42.17-29.81-3.29-2.34-1.93,3.56-30.32,55.39-67.21-16.15-6.02-1.42,1.27,6.05,9.72,46.91-86.74,1.63-8.48.15,5.13,6.61,37.96,48.84-26.85,10.99-1.93.8,12.27-10.64c.62-.53.68-1.45.18-2.07-.53-.65-1.48-.74-2.13-.21l-18.7,15.62c-8.48-2.87-18.76-2.37-30.58,1.66-7.65,2.61-15.68,6.46-23.92,11.44-8,4.86-15.44,10.05-22.11,15.41l-5.1,4.09,2.96,5.87,10.52,20.89,3.91,7.74,7.47-4.42c2.43,9.96,5.36,22.26,8.77,36.84l-2.7,1.19-6.43,2.82,1.87,6.76,5.48,19.83,2.46,8.86,8.48-3.53,43.62-18.2,6.67-2.79-1.99-6.93-5.93-20.63-2.55-8.89-6.91,3.02c6.85-5.6,12.39-10.67,16.54-15.05,1.69-1.81,3.17-3.76,4.53-5.78l16.51,4.24-2.07.8-7.2,2.79,2.43,7.32,9.19,27.71,2.49,7.53-7.59,42.11-.86,4.74,4.53-1.87,79.96-32.9,8.95,31,10.19,34.79,2.22,7.59,5.3-5.87,18.76-20.86c6.31-6.93,12.42-14.02,18.61-21.01l18.46-21.13c5.66-6.49,11.2-13.07,16.77-19.62,6.1,4.3,12.18,8.65,18.37,12.86,6.82,4.71,13.6,9.42,20.48,14.02.18.12.41.09.56-.06.15-.18.15-.44-.03-.62-6.28-5.39-12.68-10.64-19.06-15.94-6.31-5.3-12.8-10.46-19.2-15.68l-1.75-1.42-1.66,1.75c-6.49,6.73-13.07,13.4-19.5,20.18l-19.29,20.39c-6.37,6.85-12.83,13.6-19.12,20.51l-13.75,14.97-8.51-27.24-10.97-34.58-1.24-3.91-3.67,1.6-78.56,34.38,6.28-38.94v-.06l4-1.93c2.1-1.01,4.15-1.99,6.13-2.93l-4.09,18.67-1.81,8.18,7.53-3.85,5.9-3.02-.03,6.73,72.43-41.16,8.86,60.66.92,6.43,4.18-5.01,3.41-4.06.92,2.73,1.36,4,58.86-74.71,58.35,48.51,2.04,1.72,5.48-3.59-.47-61.73,73.23,19.89,3.05.83,4.21-4.53-20.92-53.64,105.09-.15,4.71-.03,3.5-3.73-41.28-39.77,10.94-5.13c2.79.12,5.57-.27,8.33-1.22,4.12-1.42,7.79-3.76,10.94-7.02.39-.41.74-.86,1.1-1.27l18.14-8.52c1.99.99,4.13,1.68,6.43,1.97,3.38.41,6.82.06,10.22-1.1,4.12-1.39,7.79-3.76,10.91-7.02,3.14-3.26,5.33-7.08,6.55-11.32,1.3-4.56,1.21-9.1-.27-13.48ZM457.99,95.1c.8-5.16,1.6-10.31,2.4-15.47l4.12,14.64c-2.16.3-4.36.53-6.52.83ZM543.93,47.95c.83,10.31,2.34,24.15,4.56,41.49,2.22,17.34,4.09,29.4,5.57,36.13l-18.17,10.4-21.78-77.56,29.81-10.46ZM518.99,105.66l-7.96,8.59c-.44-3.08-.89-6.34-1.33-9.9,0-.09-.03-.18-.03-.3l8.5-1.32.82,2.92ZM506.32,60.6l10.38,36.92-7.72,1.16c-1.81-14.52-3.08-26.43-3.79-35.44l-.74-9.31,1.87,6.67ZM469.01,110.33l10.61,37.79-1.78,1.9-2.67,2.9,3.76,1.16.8.27-4.83,2.16c-2.58-10.7-3.26-13.63-3.41-14.34l-.03-.3-.12-.41c-.47-1.69-.8-2.87-1.1-3.7-2.1-6.19-5.33-11.74-9.6-16.48-3.02-3.38-6.46-6.05-10.16-8.06l18.52-2.87ZM430.31,63.01l-6.19,48.6c-.62.27-1.24.47-1.87.8-.62-3.23-1.13-6.08-1.54-8.56-.95-5.6-1.84-12.51-2.64-20.48l-1.19-11.47-10.37,4.98-8.45,4.03,32.24-17.9ZM410.01,84.17c.83,8.21,1.72,15.2,2.7,21.01.98,5.84,2.49,13.51,4.5,23.03,3.08-4.95,6.88-8.21,11.38-9.75,4.71-1.6,9.34-1.6,13.9-.03,4.56,1.57,8.62,4.33,12.15,8.27,3.56,3.91,6.19,8.48,7.97,13.66.21.65.53,1.72.92,3.17.09.56,1.81,7.79,5.16,21.69l.65,2.64,8.15-3.65,3.05,9.19c.18,1.51.47,2.99.98,4.47.44,1.3,1.04,2.49,1.69,3.59l1.42,4.24-30.32,11.77-9.36-36.1c-.36-1.33-.65-2.37-.86-3.02-1.48-4.33-3.35-7.88-5.63-10.7-2.28-2.79-4.5-3.82-6.7-3.08-2.9.98-4.77,3.65-5.6,8-.83,4.33-.59,9.9.65,16.66.47,2.02,4.03,13.57,10.7,34.67l-30.08,11.68-5.9-19.68,7.29-3.85-19.23-74.92-9.04,3.62-5.96-19.65,35.41-16.92ZM370.18,195.57c-.41-1.27-1.19-2.07-2.28-2.43-1.1-.33-2.43-.36-4-.09-1.6.27-3.94.8-7.05,1.6-3.76.95-7.11,1.72-10.11,2.31-4.33.86-8,0-11.02-2.55-2.99-2.58-5.28-6.13-6.85-10.67-2.02-5.96-2.4-12-1.21-18.17,1.21-6.16,3.79-11.59,7.73-16.33,3.91-4.74,8.74-8.06,14.49-10.02,2.34-.8,4.77-1.3,7.29-1.54l5.3-11.5,19.2,13.72-14.55,22.85c-1.84-1.19-3.44-1.84-4.83-2.02-1.36-.18-3.14.12-5.33.86-2.34.8-4.18,1.99-5.54,3.56-1.36,1.6-1.75,3.32-1.13,5.16.68,1.99,1.72,3.14,3.11,3.44,1.42.3,3.26.03,5.6-.77.8-.27,2.19-.8,4.15-1.57,6.85-2.31,12.62-2.55,17.37-.68,4.74,1.84,8.15,5.84,10.25,11.97.24.74.47,1.45.65,2.19.15.53.3,1.07.39,1.6.12.39.18.74.24,1.13.09.44.18.89.21,1.33.09.27.12.53.12.83.09.53.12,1.04.18,1.57v.12l-.68.36.71,2.34c0,.53-.03,1.04-.06,1.57,0,.27-.03.56-.06.86-.06.83-.15,1.69-.3,2.52-.09.56-.18,1.1-.3,1.66-1.3,6.05-4.06,11.38-8.24,16.03-4.21,4.62-9.42,8-15.65,10.11-4.09,1.39-8.18,1.93-12.33,1.6l-3.17,7.97-15.83-8.77-3.56-1.96,1.81-3.29,10.99-20.21c2.34,2.02,4.74,3.23,7.2,3.62,2.46.41,4.92.21,7.35-.62,1.57-.53,3.17-1.39,4.83-2.58,1.69-1.16,2.99-2.4,3.94-3.7.98-1.3,1.27-2.43.95-3.41ZM380.82,129.36l2.76-1.1.47-.21,1.13,4.42-4.36-3.11ZM383.48,163.17c-1.93-.74-3.94-1.24-6.05-1.54l10.85-17.01,7.68,29.84c-2.96-5.42-7.14-9.19-12.48-11.29ZM92.26,149.96l83.78-1.96,4.89-.12-1.01-4.77-9.66-45.58,64.01,15.08,2.82.65,1.36-2.52,29.52-54.53,41.13,28.81,2.16,1.54,2.04-1.69,47.15-38.97,11.02,45.13.56,2.28-.95.44-6.28,2.99,2.02,6.67,5.99,19.68.21.68-5.87-4.18-7.94-5.69-4.09,8.89-3.5,7.56c-1.48.3-2.93.71-4.36,1.19-7.14,2.43-13.25,6.64-18.11,12.51-4.8,5.78-7.97,12.48-9.45,19.97-1.48,7.53-.98,15.05,1.51,22.32,2.02,5.93,5.13,10.73,9.28,14.23,1.66,1.39,3.44,2.49,5.33,3.26l-4.42,8.12-1.81-5.39-6.52,2.9c-2.79-10.49-5.1-19.44-6.85-26.7l-4.92-22.32-2.13-9.78-2.46,1.13c.53-3.29.27-6.52-.8-9.69-1.16-3.35-3.11-6.1-5.9-8.21-2.58-1.99-5.6-3.2-8.92-3.65-3.14-.41-6.28-.09-9.36.95-3.82,1.3-7.14,3.5-9.87,6.52-2.73,2.96-4.59,6.43-5.54,10.28-.44,1.69-.62,3.38-.62,5.04l-.89-4.18-1.99-9.48-8.98,3.65-84.4,34.35-.39-1.48-2.16-8.59-8.36,2.93-21.96,7.62-8.18,2.84,3.38,7.97,1.19,2.79-9.96,4.09-30.76-45.58ZM287.17,192.69l-9.81,3.65-5.96-19.59,32.01-14.55,4.95,22.4c2.28,9.39,5.39,21.43,9.34,36.1l7.05-3.11,1.36,4.12,3.85,11.59,1.93,5.78-35.89,13.63-5.99-19.65,7.26-3.26-10.11-37.1ZM269.03,168.92l-1.45-6.99c1.04,2.22,2.49,4.18,4.33,5.69l-2.87,1.3ZM274.19,149.96c.62-2.55,1.87-4.8,3.67-6.82,1.81-1.99,3.97-3.41,6.49-4.27,1.9-.65,3.79-.83,5.72-.59,1.9.24,3.59.92,5.07,2.04,1.45,1.13,2.49,2.58,3.11,4.39.83,2.37.86,4.8.15,7.32-.71,2.49-2.02,4.71-3.91,6.73-1.9,1.99-4.06,3.41-6.55,4.24-2.96,1.04-5.75,1.01-8.33-.06-2.55-1.07-4.27-2.93-5.19-5.57-.8-2.37-.89-4.83-.24-7.41ZM238.48,211.69c2.52,11.2,5.1,21.99,7.68,32.39l9.22-4,5.75,22.7-44.31,17.93-6.19-21.25,9.01-3.88-12.09-57.73-13.45,5.63,2.61,10.16-17.96,6.34-.89-4.71.95-.44-1.6-6.4-2.55-10.22-2.49-13.19,84.76-34.5,7.29,34.73-16.74,5.22-2.19-8.33c-3.47,1.36-7.44,2.96-11.94,4.86.89,5.28,2.61,13.48,5.16,24.69ZM85.29,213.17l.03.06s-.06-.03-.06-.03l.03-.03ZM96.52,250.84c-.03.65-.12,1.3-.24,1.93-.06.56-.15,1.1-.3,1.63-.15.59-.3,1.22-.47,1.81-.03.21-.12.44-.18.65-.33.98-.65,1.93-1.07,2.85-.15.41-.3.8-.5,1.19-.15.39-.33.77-.53,1.19-.24.56-.53,1.1-.83,1.63-1.39,2.61-3.05,5.04-5.01,7.26-.33.41-.68.8-1.04,1.19-4.06,4.33-9.6,9.34-16.57,15-.8.62-1.63,1.3-2.49,2.02-.86.74-1.78,1.48-2.73,2.28l3.67,13.4,9.16-4,5.9,20.66-43.62,18.2-5.48-19.86,8.83-3.88c-5.45-23.53-9.78-41.55-12.92-54.08l-9.39,5.57-10.52-20.89c6.4-5.16,13.48-10.08,21.22-14.79,7.76-4.71,15.2-8.27,22.32-10.7,6.93-2.37,13.1-3.38,18.46-3.02.44.03.89.09,1.3.15.15-.03.3,0,.44.03,1.54.18,3.02.47,4.42.95.39.09.77.21,1.16.36,6.85,2.49,11.85,8.39,15.03,17.69.83,2.46,1.42,4.8,1.75,7.11.21,1.57.33,3.08.33,4.56,0,.65-.03,1.3-.09,1.96ZM98.81,268.79c1.33-2.31,2.43-4.77,3.38-7.32l11.02,3.05,1.81,7.71-16.21-3.44ZM103.25,258.51c1.04-3.38,1.51-6.91,1.42-10.58l3.29-1.45.86-.39,3.59,15.17-9.16-2.76ZM124.44,311.68c-.36.18-.71.36-1.1.53l-2.22-6.73-6.99-20.98,11.08-4.21.03-.03-.03-.12c.06-.33.12-.59.15-.89l-.39-.12-1.19-5.04-1.69-7.08-.71-3.05-6.93-29.16-9.75,4.27-9.63-23.35,28.95-11.85,3.62-1.48,16-6.55-4.39-10.34,21.96-7.65,5.51,22.14,2.02,10.7-25.96,12.48c.03.95.8,5.42,2.25,13.45l7.76-3.82-1.16-4.12,14.02-6.22,7.47,30.14-13.42,5.36-1.13-4.24c-2.16,1.01-5.25,2.61-9.25,4.83.68,2.64,1.45,6.25,2.28,10.91l27.21-11.41,10.22,36.57-21.43,8.09-1.57-10.25c-5.3,2.25-12.98,5.72-23.03,10.43-.65.3-1.33.62-2.02.95-1.87.86-3.82,1.78-5.84,2.76-3.35,1.57-6.93,3.29-10.73,5.1ZM516.73,235.34l-106.27.68-2.58.03.86,2.4,19.12,54.5-73.76-19.68-1.81-.47-.06,1.84-2.82,62.29-60.1-49.46-.86-.71-.74.83-61.35,68.4-11.74-58.47-.3-1.48-1.36.62-75.22,32.75,2.04-16.06c7.79-3.67,14.43-6.79,19.86-9.25l1.51,9.72,9.34-3.53,21.4-8.09,6.93-2.61-1.99-7.14-10.22-36.6-2.49-8.83-3.65,1.54-4.68-18.94,5.63-1.99,17.96-6.37,4.45-1.57,6.52,31.06-2.93,1.27-6.58,2.82,2.02,6.88,6.19,21.28,2.52,8.59,8.3-3.38,44.28-17.93,6.55-2.67-1.75-6.82-5.72-22.7-2.34-9.25-8.74,3.82-.41.18c-1.78-7.47-3.59-15.14-5.36-22.94-.83-3.62-1.54-6.93-2.19-9.93l5.69-1.78,16.74-5.25,1.16-.36,1.87,6.1,2.49,8.24,8.09-3.02,1.48-.56,5.96,21.9-.95.41-6.49,2.9,2.07,6.82,5.99,19.68,2.52,8.3,8.09-3.08,35.89-13.66,7.26-2.76-1.6-4.8,8.15,4.5,8.06,4.48,3.38-8.56,1.16-2.9c3.17-.27,6.31-.92,9.42-1.99,7.53-2.55,13.93-6.73,19.03-12.36,3.29-3.65,5.9-7.68,7.74-12.09l2.34,7.73,2.52,8.42,8.15-3.17,30.05-11.68,7.08-2.76-2.28-7.23c-8.24-26.08-10.14-32.51-10.49-33.93-1.07-5.87-1.07-9.75-.8-12.21.95,1.63,1.78,3.5,2.49,5.63.09.27.33.95.71,2.49l9.34,36.07,2.28,8.8,8.48-3.29,22.94-8.89,1.3,1.39,35.27,37.82ZM487.77,147.14l-1.69-5.99-9.01-32.07-1.51-5.42-2.04-7.29-.89-3.11-5.3-18.91,29.81-10.46c.09,1.16.18,2.34.3,3.59.74,8.65,1.96,19.44,3.56,32.39.24,1.78.47,3.59.71,5.42v.09c.27,2.22.56,4.36.83,6.4.24,1.75.44,3.47.68,5.1.24,1.78.47,3.44.71,5.04.44,3.14.89,6.02,1.3,8.56.74,4.56,1.42,8.24,2.04,11.02l-17.9,10.25-.33-.09-1.27-4.53ZM517.67,167.62c-.09.47-.21.95-.33,1.42-.83,2.96-2.37,5.6-4.59,7.94-2.22,2.31-4.8,3.97-7.71,4.95-2.22.77-4.42,1.01-6.58.74-2.16-.27-4.06-1.04-5.72-2.31-.83-.62-1.51-1.36-2.1-2.19l-2.13-6.49v-.12c-.06-.44-.09-.86-.09-1.27v-.3c0-.21,0-.41.03-.62.03-.3.06-.62.09-.92.06-.62.21-1.24.36-1.87.74-2.99,2.19-5.69,4.33-8.03,1.75-1.93,3.76-3.41,6.05-4.42.5-.27,1.04-.47,1.57-.65,2.25-.77,4.48-1.01,6.73-.74,2.22.27,4.21,1.07,5.93,2.4.39.3.74.59,1.07.95.06.03.09.06.12.12.3.3.56.59.83.95.03.03.06.09.09.15.15.24.3.44.44.68.06.06.09.12.12.18.41.68.77,1.42,1.04,2.22.8,2.37.98,4.77.47,7.23ZM528.11,161.03l-2.55-.61c-.18-.89-.39-1.75-.68-2.64-1.27-3.7-3.44-6.76-6.43-9.07-1.16-.86-2.34-1.6-3.62-2.19l1.63-.95-1.27-5.81c-.83-3.65-1.75-9.07-2.82-16.09l9.22-8.79,6.55,23.28,1.54,5.48c-.77,1.6-1.39,3.26-1.84,5.01-1.05,4.19-.94,8.36.27,12.38ZM564.17,153.1c-.86,2.96-2.4,5.63-4.62,7.94-2.22,2.31-4.8,3.97-7.68,4.95-2.25.77-4.45,1.01-6.61.74-.2-.03-.39-.08-.59-.11h0c-.94-.15-1.82-.41-2.65-.76-.07-.03-.13-.06-.19-.09-.8-.36-1.56-.8-2.28-1.34-1.63-1.27-2.82-2.96-3.56-5.1-.95-2.82-1.04-5.69-.3-8.68.77-2.99,2.22-5.66,4.36-8.03,2.13-2.37,4.65-4.06,7.62-5.07,2.22-.77,4.45-1.01,6.7-.74,2.25.27,4.21,1.07,5.93,2.4,1.75,1.33,2.96,3.08,3.7,5.25.95,2.82,1.01,5.69.18,8.65Z"/>
  </g>
  <path class="cls-2" d="M274.43,157.36c-.8-2.37-.89-4.83-.24-7.41.62-2.55,1.87-4.8,3.67-6.82,1.81-1.99,3.97-3.41,6.49-4.27,1.9-.65,3.79-.83,5.72-.59,1.9.24,3.59.92,5.07,2.04,1.45,1.13,2.49,2.58,3.11,4.39.83,2.37.86,4.8.15,7.32-.71,2.49-2.02,4.71-3.91,6.73-1.9,1.99-4.06,3.41-6.55,4.24-2.96,1.04-5.75,1.01-8.33-.06-2.55-1.07-4.27-2.93-5.19-5.57ZM516.16,158.17c-.03-.06-.06-.12-.12-.18-.15-.24-.3-.44-.44-.68-.03-.06-.06-.12-.09-.15-.27-.36-.53-.65-.83-.95-.03-.06-.06-.09-.12-.12-.33-.36-.68-.65-1.07-.95-1.72-1.33-3.7-2.13-5.93-2.4-2.25-.27-4.48-.03-6.73.74-.53.18-1.07.39-1.57.65-2.28,1.01-4.3,2.49-6.05,4.42-2.13,2.34-3.59,5.04-4.33,8.03-.15.62-.3,1.24-.36,1.87-.03.3-.06.62-.09.92-.03.21-.03.41-.03.62v.3c-.06,1.69.21,3.35.77,4.98.36,1.07.83,2.04,1.45,2.9.59.83,1.27,1.57,2.1,2.19,1.66,1.27,3.56,2.04,5.72,2.31,2.16.27,4.36.03,6.58-.74,2.9-.98,5.48-2.64,7.71-4.95,2.22-2.34,3.76-4.98,4.59-7.94.12-.47.24-.95.33-1.42.5-2.46.33-4.86-.47-7.23-.27-.8-.62-1.54-1.04-2.22ZM151.62,269.45c-.83-4.65-1.6-8.27-2.28-10.91,4-2.22,7.08-3.82,9.25-4.83l1.13,4.24,13.42-5.36-7.47-30.14-14.02,6.22,1.16,4.12-7.76,3.82c-1.45-8.03-2.22-12.51-2.25-13.45l25.96-12.48.59-.3-2.61-10.4-5.51-22.14-21.96,7.65,4.39,10.34-16,6.55-3.62,1.48-28.95,11.85,9.63,23.35,9.75-4.27,6.93,29.16.71,3.05,1.69,7.08,1.19,5.04.39.12c-.03.3-.09.56-.15.89l.03.12-.03.03-11.08,4.21,6.99,20.98,2.22,6.73c.39-.18.74-.36,1.1-.53,3.79-1.81,7.38-3.53,10.73-5.1,2.02-.98,3.97-1.9,5.84-2.76v-.03c.68-.33,1.36-.62,2.02-.92,10.05-4.71,17.72-8.18,23.03-10.43l1.57,10.25,21.43-8.09-10.22-36.57-27.21,11.41ZM247.46,190.47l16.74-5.22-7.29-34.73-84.76,34.5,2.49,13.19,3.2,17.07.89,4.71,17.96-6.34-2.61-10.16,13.45-5.63,12.09,57.73-9.01,3.88,6.19,21.25,44.31-17.93-5.75-22.7-9.22,4c-2.58-10.4-5.16-21.19-7.68-32.39-2.55-11.2-4.27-19.41-5.16-24.69,4.5-1.9,8.48-3.5,11.94-4.86l2.19,8.33ZM326.11,221.7l-1.36-4.12-7.05,3.11c-3.94-14.67-7.05-26.7-9.34-36.1l-4.95-22.4-32.01,14.55,5.96,19.59,9.81-3.65,10.11,37.1-7.26,3.26,5.99,19.65,35.89-13.63-1.93-5.78-3.85-11.59ZM480.54,173.4l-3.05-9.19-8.15,3.65-.65-2.64c-3.35-13.9-5.07-21.13-5.16-21.69-.39-1.45-.71-2.52-.92-3.17-1.78-5.19-4.42-9.75-7.97-13.66-3.53-3.94-7.59-6.7-12.15-8.27-4.56-1.57-9.19-1.57-13.9.03-4.5,1.54-8.3,4.8-11.38,9.75-2.02-9.51-3.53-17.19-4.5-23.03-.98-5.81-1.87-12.8-2.7-21.01l-35.41,16.92,5.96,19.65,9.04-3.62,19.23,74.92-7.29,3.85,5.9,19.68,30.08-11.68c-6.67-21.1-10.22-32.66-10.7-34.67-1.24-6.76-1.48-12.33-.65-16.66.83-4.36,2.7-7.02,5.6-8,2.19-.74,4.42.3,6.7,3.08,2.28,2.82,4.15,6.37,5.63,10.7.21.65.5,1.69.86,3.02l9.36,36.1,30.32-11.77-1.42-4.24-2.67-8.06ZM489.37,151.76l17.9-10.25c-.62-2.79-1.3-6.46-2.04-11.02-.41-2.55-.86-5.42-1.3-8.56-.24-1.6-.47-3.26-.71-5.04-.24-1.63-.44-3.35-.68-5.1-.27-2.04-.56-4.18-.83-6.4v-.09c-.24-1.84-.47-3.65-.71-5.42-1.6-12.95-2.82-23.74-3.56-32.39-.12-1.24-.21-2.43-.3-3.59l-29.81,10.46,5.3,18.91.89,3.11,2.04,7.29,1.51,5.42,9.01,32.07,1.69,5.99,1.27,4.53.33.09ZM554.07,125.57c-1.48-6.73-3.35-18.79-5.57-36.13-2.22-17.34-3.73-31.18-4.56-41.49l-29.81,10.46,10.64,37.9,3.44,12.27,7.71,27.38,18.17-10.4ZM564,144.44c-.74-2.16-1.96-3.91-3.7-5.25-1.72-1.33-3.67-2.13-5.93-2.4-2.25-.27-4.48-.03-6.7.74-2.96,1.01-5.48,2.7-7.62,5.07-2.13,2.37-3.59,5.04-4.36,8.03-.74,2.99-.65,5.87.3,8.68.59,1.69,1.45,3.11,2.61,4.24h.03c.3.33.59.59.92.86,1.51,1.16,3.2,1.9,5.13,2.19.18.06.39.09.59.12,2.16.27,4.36.03,6.61-.74,2.87-.98,5.45-2.64,7.68-4.95,2.22-2.31,3.76-4.98,4.62-7.94.83-2.96.77-5.84-.18-8.65ZM96.29,244.32c.21,1.57.33,3.08.33,4.56,0,.65-.03,1.3-.09,1.96-.03.65-.12,1.3-.24,1.93-.06.56-.15,1.1-.3,1.63-.15.59-.3,1.22-.47,1.81-.03.21-.12.44-.18.65-.33.98-.65,1.93-1.07,2.85-.18.39-.33.8-.5,1.19-.15.39-.33.77-.53,1.19-.27.53-.53,1.1-.83,1.63-1.19,2.13-2.52,4.15-4.06,6.05h.03c-.33.41-.65.83-.98,1.22-.33.41-.68.8-1.04,1.19-4.06,4.33-9.6,9.34-16.57,15-.8.62-1.63,1.3-2.49,2.02-.86.74-1.78,1.48-2.73,2.28l3.67,13.4,9.16-4,5.9,20.66-43.62,18.2-5.48-19.86,8.83-3.88c-5.45-23.53-9.78-41.55-12.92-54.08l-9.39,5.57-10.52-20.89c6.4-5.16,13.48-10.08,21.22-14.79,7.76-4.71,15.2-8.27,22.32-10.7,6.93-2.37,13.1-3.38,18.46-3.02.44.03.89.09,1.3.15.15-.03.3,0,.44.03,1.54.18,3.02.47,4.42.95.39.09.77.21,1.16.36,6.85,2.49,11.85,8.39,15.03,17.69.83,2.46,1.42,4.8,1.75,7.11ZM70.27,249.77c-.18-.53-.41-.98-.74-1.36-.47-.62-1.13-1.01-1.93-1.19-.68-.15-1.45-.18-2.31-.06-.71.09-1.48.3-2.31.56-1.22.41-2.52,1.01-3.91,1.78-.83.47-1.72,1.01-2.64,1.63.15,1.54.41,3.38.83,5.48.18.92.41,2.1.74,3.5.12.62.27,1.27.41,1.96.3,1.33.62,2.79,1.01,4.42,1.72-.83,3.26-1.81,4.62-2.99.65-.5,1.24-1.07,1.81-1.69.09-.09.21-.21.3-.33,1.84-2.1,3.11-4.21,3.79-6.31.3-.89.47-1.72.56-2.49.15-1.1.06-2.04-.24-2.9ZM392.55,191.36c-.06-.53-.09-1.04-.18-1.57,0-.3-.03-.56-.12-.83-.03-.44-.12-.89-.21-1.33-.06-.39-.15-.77-.24-1.13-.09-.53-.24-1.07-.39-1.6-.18-.74-.41-1.45-.65-2.19-2.1-6.13-5.51-10.14-10.25-11.97-4.74-1.87-10.52-1.63-17.37.68-1.96.77-3.35,1.3-4.15,1.57-2.34.8-4.18,1.07-5.6.77-1.39-.3-2.43-1.45-3.11-3.44-.62-1.84-.24-3.56,1.13-5.16,1.36-1.57,3.2-2.76,5.54-3.56,2.19-.74,3.97-1.04,5.33-.86,1.39.18,2.99.83,4.83,2.02l14.55-22.85-19.2-13.72-5.3,11.5c-2.52.24-4.95.74-7.29,1.54-5.75,1.96-10.58,5.28-14.49,10.02-3.94,4.74-6.52,10.16-7.73,16.33-1.19,6.16-.8,12.21,1.21,18.17,1.57,4.53,3.85,8.09,6.85,10.67,3.02,2.55,6.7,3.41,11.02,2.55,2.99-.59,6.34-1.36,10.11-2.31,3.11-.8,5.45-1.33,7.05-1.6,1.57-.27,2.9-.24,4,.09,1.1.36,1.87,1.16,2.28,2.43.33.98.03,2.1-.95,3.41-.95,1.3-2.25,2.55-3.94,3.7-1.66,1.19-3.26,2.04-4.83,2.58-2.43.83-4.89,1.04-7.35.62-2.46-.39-4.86-1.6-7.2-3.62l-10.99,20.21-1.81,3.29,3.56,1.96,15.83,8.77,3.17-7.97c4.15.33,8.24-.21,12.33-1.6,6.22-2.1,11.44-5.48,15.65-10.11,4.18-4.65,6.93-9.99,8.24-16.03.12-.56.21-1.1.3-1.66.15-.83.24-1.69.3-2.52.03-.3.06-.59.06-.86.12-1.42.15-2.85.03-4.27v-.12Z"/>
</svg>