<?xml version="1.0" encoding="UTF-8"?>
<svg id="Layer_1" xmlns="http://www.w3.org/2000/svg" viewBox="0 0 281.78 294.12">
  <defs>
    <style>
      .cls-1 {
        fill: #fafafa;
      }

      .cls-2 {
        fill: #f2f2f2;
      }

      .cls-3 {
        fill: #f8ac32;
      }

      .cls-4 {
        fill: #e99720;
      }

      .cls-5 {
        fill: #fff;
      }

      .cls-6 {
        fill: none;
      }

      .cls-7 {
        stroke: #010101;
        stroke-miterlimit: 10;
        stroke-width: .25px;
      }

      .cls-7, .cls-8 {
        fill: #010101;
      }

      .cls-9 {
        opacity: .36;
      }

      .cls-10 {
        fill: #cc6f1a;
      }

      .cls-11 {
        fill: #69b78c;
      }

      .cls-12 {
        fill: #c21718;
      }
    </style>
  </defs>
  <ellipse class="cls-11" cx="135.13" cy="146.61" rx="122.54" ry="135.45"/>
  <path class="cls-8" d="M225.57,238.93c.33-.04.58-.09.83-.16.03-.27.04-.53.05-.8l-.87.96Z"/>
  <path class="cls-8" d="M41.75,216.34c-3.16,2.69-4.68,6.77-7.81,9.5,0,0-.08-.06-.08-.06.7-2.01,1.93-3.69,3.34-5.24,1.38-1.55,2.74-3.17,4.51-4.3,0,0,.05.09.05.09h0Z"/>
  <path class="cls-8" d="M21.98,193.66c.17-1.03.57-2,1.07-2.93l.42-.68c.15-.22.32-.43.48-.65.36-.41.73-.81,1.16-1.16.21-.18.42-.36.65-.52.23-.16.45-.34.69-.49.25-.13.5-.26.77-.37.26-.12.54-.15.82-.2,1.11-.18,2.26,0,3.25.57v.2c-.52.3-1,.44-1.45.64-.45.2-.89.33-1.29.53-.81.34-1.7.48-2.51.94-.79.45-1.53,1.05-2.18,1.76-.66.7-1.23,1.52-1.69,2.4l-.19-.06Z"/>
  <path class="cls-8" d="M18.99,184.56c.17-1.03.57-2,1.07-2.93l.42-.68c.15-.22.32-.43.48-.65.36-.41.73-.81,1.16-1.16.21-.18.42-.36.65-.52.23-.16.45-.34.69-.49.25-.13.5-.26.77-.37.26-.12.54-.15.82-.2,1.11-.18,2.26,0,3.25.57v.2c-.52.3-1,.44-1.45.64-.45.2-.89.33-1.29.53-.81.34-1.7.48-2.51.94-.79.45-1.53,1.05-2.18,1.76-.66.7-1.23,1.52-1.69,2.4l-.19-.06Z"/>
  <path class="cls-10" d="M200.9,249.04c.1.27.2.54.31.81.2.04.32.05.32.05-.23-.27-.44-.56-.63-.86Z"/>
  <path class="cls-2" d="M175.71,230.67s4.39,10.35,3.37,17l2.97,2.85s.18-14.17-6.33-19.85Z"/>
  <path class="cls-2" d="M70.77,237.34s-7.2,2.58-8.3,7.5l-1.46-.44s2.71-6.81,9.77-7.05Z"/>
  <path class="cls-6" d="M44.98,189.91c-3.97,6.62-8.79,12.61-15.81,15.32,7.43-.46,13.64-6.75,15.81-15.32Z"/>
  <g class="cls-9">
    <polygon class="cls-1" points="48.36 51.78 106.91 129 123.19 115.11 80.19 26.15 48.36 51.78"/>
    <polygon class="cls-1" points="117.24 14.14 124.71 119.45 147.03 120.81 156.56 11.16 117.24 14.14"/>
    <polygon class="cls-1" points="191.69 28.49 146 127.43 159.68 137.13 221.99 51.78 191.69 28.49"/>
    <polygon class="cls-1" points="241.06 89.72 147.17 145.05 152.89 160.81 252.71 126.12 241.06 89.72"/>
    <polygon class="cls-1" points="259.11 178.19 154.28 148.4 146.82 163.41 240.8 211.73 259.11 178.19"/>
    <polygon class="cls-1" points="220.53 242.55 145.37 163.64 131.32 172.78 187.72 262.15 220.53 242.55"/>
    <polygon class="cls-1" points="25.9 86.93 120.15 137.64 116.1 147.19 13.01 129 25.9 86.93"/>
    <polygon class="cls-1" points="12.59 169.18 113.55 151.84 116.45 161.8 25.09 212.89 12.59 169.18"/>
  </g>
  <path class="cls-4" d="M199.1,231.54c-2.05,3.44-2.72,6.53-2.94,7.71-.46,2.49-.43,4.63-.3,6.14-.69-1.43-3.01-5.72-8.12-8.13-3.14-1.48-6.04-1.63-7.67-1.58-20.71-22.17-41.41-44.33-62.12-66.5l-40.19,1.27c-6.46,10.24-12.92,20.48-19.38,30.72,0-2.63-.33-11.74-7.14-19.96-.3-.36-.61-.71-.92-1.05-4.05,7.68-8.35,16.26-15.04,21.55.03.23.06.49.07.78.27,5.32-3.46,10.91-5.3,13.4,5.61,9.43,15.1,22.76,30.27,35.05,21.76,17.63,44.03,24.06,56.22,26.63,0,0,22.83,3.73,48.78-2.59,3.5-.85,8.31-1.93,14.23-4.51,6.1-2.65,11.32-5.97,15.33-8.51,5.8-3.68,7.57-5.33,9.64-6.33-5.01-6.23-6.41-15.75-5.44-24.07Z"/>
  <g>
    <path class="cls-10" d="M166.39,269.14c-.49.61-1.19,1.6-1.79,2.93-.78,1.73-.73,2.56-1.08,3.09-2.05,3.14-13.93-2.24-13.93-2.24-12.63-5.72-25.94-13.07-35.46-18.57,0,0,27.91,9.2,45.61-2.61l-5.03,9.82c1.36.25,6.21.98,10.94-1.88,7.24-4.38,7.5-13.09,7.51-13.68,1.32,1.43,3.16,3.78,4.31,7.1,1.73,4.94,1.42,10.53.06,10.9-1.17.32-2.06-3.53-5.56-4.65-2.05-.66-4.14-.11-5.79.62.87.5,2.23,1.43,3.46,3.01,1.35,1.74,1.91,3.46,2.16,4.46-.49-.12-1.49-.31-2.69,0-1.5.39-2.4,1.32-2.73,1.69Z"/>
    <g>
      <path class="cls-8" d="M178.87,234.93c1.62-.18,3.27-.03,4.89.27l1.21.28,1.19.35c.78.28,1.57.56,2.32.93.77.32,1.48.78,2.21,1.2.68.49,1.4.94,2.02,1.52,1.31,1.07,2.39,2.39,3.39,3.74l-1.82.52c.16-3.01.86-6,2.1-8.73.6-1.37,1.37-2.66,2.22-3.88.87-1.21,1.84-2.33,2.93-3.31-.77,1.25-1.5,2.5-2.12,3.79-.63,1.29-1.16,2.61-1.61,3.95-.88,2.69-1.4,5.47-1.52,8.27l-.12,2.77-1.7-2.25c-.92-1.22-1.87-2.43-3.02-3.43-.54-.55-1.17-.99-1.76-1.48-.64-.43-1.26-.89-1.93-1.27-.66-.41-1.36-.75-2.06-1.09l-1.07-.48-1.1-.42c-1.48-.55-3.02-.96-4.62-1.25Z"/>
      <g>
        <g>
          <path class="cls-10" d="M52.78,185.58s.25,14.57-6.35,16.84c0,0,7.56,1.43,11.04-4.43,0,0-1.4-7.53-4.69-12.41Z"/>
          <path class="cls-10" d="M53.75,208.96c-.85.86-2.06,1.92-3.67,2.89-1.67,1.01-3.23,1.59-4.42,1.93.6.52,1.53,1.2,2.8,1.72,1.42.59,2.68.75,3.52.79.2-1.17.45-2.42.77-3.72.31-1.28.65-2.49,1-3.61Z"/>
          <path class="cls-10" d="M58.77,220.64s-9.08,11.17-19.42,8.88c.61,1.1,1.57,2.43,3.08,3.51,5.08,3.63,11.65.99,12.28.72.15-1.95.53-4.44,1.43-7.21.78-2.39,1.74-4.37,2.62-5.91Z"/>
          <path class="cls-10" d="M35.3,206.82s3.71,3.4,9.38.75c0,0-4.88,8.87-13.79,7.31l4.41-8.06Z"/>
          <path class="cls-10" d="M198.29,234.49c-1.8,2.11-3.5,8.62-2.35,11.75.97,2.62,4.23,3.42,5.26,3.61-.11-.27-.21-.54-.31-.81-3.53-5.35-2.6-14.55-2.6-14.55Z"/>
          <path class="cls-10" d="M195.57,251.21c-1.25,5.65-.68,10.73-.68,10.73,2.39-.54,6.64-4.42,6.64-4.42-1.81.33-5.96-6.32-5.96-6.32Z"/>
          <path class="cls-10" d="M59.55,202.96c-6.21,1.62-7.12,16.66-7.12,16.66,7.39-8.77,16.4-5.8,16.4-5.8l-4.39,5.62c12.8-5.42,29.72,3.58,29.72,3.58-9.05-15.35-34.61-20.06-34.61-20.06Z"/>
          <path class="cls-10" d="M161.98,223c2.77.4,7.48,1.52,11.81,5.1,10.5,8.68,8.6,23.49,8.43,24.63-1.36-2.06-3.5-4.87-6.68-7.63-3.76-3.26-7.2-4.89-10.17-6.28-3.68-1.72-9.23-3.85-16.44-5.01,5.32.34,10.65.69,15.97,1.03-5.96-2.61-10.83-3.58-14.22-3.97-2.51-.29-4.9-.35-9.14-1.03-3.54-.57-6.4-1.25-8.27-1.74.64-.38,1.62-.9,2.88-1.33,3.78-1.28,7.09-.73,8.01-.61,3.03.42,8.24.07,17.82-3.17Z"/>
          <path class="cls-10" d="M56.9,225s4.35-2.45,18.22,0c0,0-5.98,1.55-7.2,2.81,0,0,21.75,10.44,24.6,18.43,0,0-9.06-5.24-15-5.15,0,0,3.77,23.2,13.46,28.36,0,0-20.95-11.96-23.69-17.55-.49-1.01-1.88-6.14-5.35-6.94-.75-.18-1.42-.11-1.87-.02.39-1.03,1.91-4.68,5.8-6.51,1.49-.7,2.9-.92,3.93-.98-.3-.43-2.64-3.76-6.72-3.83-2.43-.04-5.36,1.23-8.54,5.39,0,0,.02-12.23,2.37-14.01Z"/>
        </g>
        <g>
          <path class="cls-2" d="M84.78,224.05s-1.99,6.04-1.1,8.54c0,0,3.9-1.41,9.29,2,0,0-.75,1.65-1.09,2.76l2.27-.1-2.96,1.38s-.63-2.38.58-3.75c0,0-5.4-2.31-10.08,1.42,0,0-1.75-7.07,3.09-12.25Z"/>
          <path class="cls-2" d="M159.78,243.78s16.24,2.7,16.05,16.64l1.38,1.24s5.69-15.69-17.43-17.88Z"/>
          <path class="cls-2" d="M145.58,232.58l2.64,4.76h-2.64s0,7.5,3.47,10.18c0,0-3.14,2.9-8.28,2.05,0,0,9.14,2.94,13.96-1.71,0,0-6.54-3.36-5.94-8.09,0,0,4.98-1.64,4.31-2.12s-7.52-5.08-7.52-5.08Z"/>
          <path class="cls-2" d="M101.53,255.28s5.71,3.95,7.7,3.95c0,0,.6-6.53,5.07-8.43l2.15,1.92.74-1.51.24,3.26-3.3-1.87s-3.31,4.96-2.26,9.92c0,0-6.43.25-10.35-7.24Z"/>
          <path class="cls-2" d="M62.52,196.77c-9.45,7.51-10.09,22.85-10.09,22.85l3.84-3.73c-.96-5.74,6.25-19.12,6.25-19.12Z"/>
          <path class="cls-2" d="M72.62,213.42s-2.71,1.97-4.71,2.82c-2,.85-8.11,5.62-9.12,17.18l-2.53,1.56c0-2.59.4-7.13,2.99-11.75.93-1.66,2.44-4.35,5.39-6.29,1.41-.93,3.21-1.72,3.85-2,1.65-.73,3.08-1.21,4.14-1.52Z"/>
          <g>
            <path class="cls-8" d="M73.33,217.42s.01,0,0,0h0Z"/>
            <path class="cls-7" d="M66.77,233.87c-1.27-.72-2.73-1.16-4.23-1.21-1.5-.02-3.01.34-4.32,1.03-.7.36-1.36.8-1.96,1.29.15-1.57.41-3.15.76-4.69.49-2.17,1.17-4.3,2.12-6.29.94-1.98,2.16-3.82,3.69-5.34.72-.74,1.59-1.36,2.52-1.91.47-.28.94-.53,1.43-.77.25-.12.49-.23.74-.34l.37-.16.31-.13.13-.05c.61-.26,1.22-.52,1.83-.79l2.46-1.1-2.51-.79c-1.24-.39-2.53-.6-3.82-.61h.14c-.26-.01-.18,0-.23,0h-.07s-.13,0-.13,0h-.26s-.5.05-.5.05c-.33.03-.67.07-1,.12-.66.1-1.33.23-1.98.42-1.8.53-3.47,1.38-3.72,1.51-2.43,1.3-4.22,2.96-5.3,4.1.39-3.34,1.1-6.1,1.78-8.19.48-1.47,1.27-3.89,2.88-6.8,1.56-2.81,3.25-4.96,4.62-6.47-.02-.28-.04-.56-.05-.83-2.24,2.07-3.76,4.02-4.7,5.37-4.1,5.9-5.2,11.72-5.76,14.82-.48,2.69-.62,4.94-.66,6.39l2.22-2.37c1.68-1.8,3.62-3.36,5.79-4.45,1.08-.55,2.21-.98,3.37-1.27.58-.15,1.16-.26,1.76-.34.3-.04.6-.07.9-.09l.45-.03h.22s.11,0,.11,0h.05s0,0,0,0c-.02,0-.05,0-.11-.01h.14s.06.02.09.02c-.15.07-.3.13-.44.21-.54.26-1.06.55-1.58.85-1.03.62-2.04,1.33-2.92,2.23-1.7,1.73-2.99,3.8-3.97,5.95-.98,2.16-1.66,4.43-2.13,6.72-.46,2.3-.72,4.61-.74,6.97l-.02,2.12,1.38-1.59c.86-.99,1.86-1.84,2.98-2.47,1.12-.63,2.37-.97,3.64-1,1.26,0,2.54.32,3.7.93.89.45,1.72,1.05,2.47,1.74-.74.19-1.47.45-2.14.8-.97.49-1.85,1.15-2.64,1.88-.79.73-1.47,1.56-2.08,2.44-.61.88-1.12,1.81-1.57,2.77l-.19.42c4.21.45,5.71,3.96,7.22,6.97-.5-3.51-3.01-7.02-6.29-7.5.42-.78.88-1.53,1.4-2.24.61-.82,1.29-1.59,2.05-2.25.76-.66,1.59-1.24,2.5-1.66.9-.43,1.86-.7,2.84-.8l.97-.1-.66-.75c-.95-1.08-2.06-2.02-3.34-2.73Z"/>
            <path class="cls-8" d="M183.71,253.01c-.09-2.02-.28-4.04-.61-6.04-.33-2-.78-3.98-1.37-5.91-1.16-3.88-2.84-7.6-5.02-11.02-.17-.27-.54-.36-.81-.19-.28.17-.37.54-.19.82,3.69,5.98,5.8,12.87,6.33,19.85-1.36-1.62-2.99-3.03-4.83-4.12-1.3-.76-2.69-1.38-4.15-1.78-1.46-.41-2.97-.63-4.48-.66l-8.79-.18,8.54,2.15c1.71.43,3.34,1.25,4.69,2.38,1.34,1.14,2.45,2.58,3.17,4.22.72,1.63,1.13,3.43,1.21,5.26.07,1.28,0,2.59-.19,3.87-.42-.45-.88-.87-1.38-1.24-.97-.73-2.09-1.26-3.26-1.57-1.18-.29-2.4-.36-3.58-.2-1.18.14-2.32.48-3.39.99l-1.08.51,1.11.4c1.44.52,2.74,1.43,3.76,2.6.92,1.05,1.61,2.31,2.06,3.66-.64-.09-1.29-.07-1.92.06-.8.16-1.55.49-2.21.96-.66.46-1.22,1.05-1.66,1.71-.45.66-.78,1.39-.99,2.15-.02.06.02.13.08.15.06.02.13-.02.15-.08.23-.73.58-1.42,1.02-2.03.45-.61.99-1.15,1.62-1.56,1.25-.83,2.85-1.1,4.26-.71l.47.13-.12-.48c-.4-1.6-1.12-3.14-2.17-4.45-.79-.99-1.78-1.84-2.9-2.48.66-.2,1.34-.33,2.03-.38,1.06-.09,2.12.02,3.12.31.99.31,1.92.8,2.73,1.46.81.65,1.49,1.46,2.04,2.34l.92,1.5.49-1.7c.56-1.96.81-3.94.77-5.96-.04-2.01-.44-4.05-1.24-5.95-.71-1.71-1.78-3.29-3.15-4.56.53.22,1.04.46,1.54.73,1.19.65,2.3,1.45,3.3,2.39,1,.93,1.89,1.99,2.66,3.13l1.53,2.27-.12-2.71Z"/>
            <path class="cls-8" d="M91.19,238.62c-.01-.12-.02-.25-.03-.37-.02-.31,0-.62.02-.94.03-.31.07-.62.13-.92.05-.3.13-.62.22-.86l.23-.66-.73-.26c-.94-.34-1.92-.55-2.92-.6-1-.05-2.03.05-3.03.33-.99.29-1.95.76-2.77,1.41-.22.17-.44.36-.64.55-.07-.53-.13-1.07-.15-1.6-.06-1.23.01-2.47.23-3.69.11-.61.26-1.22.43-1.82.19-.6.4-1.19.65-1.77.51-1.17,1.16-2.28,1.92-3.36-1.05.8-1.96,1.8-2.71,2.92-.75,1.12-1.35,2.37-1.73,3.68-.39,1.31-.61,2.69-.63,4.06-.03,1.38.13,2.75.44,4.1l.53,2.31,1.27-2.02c.87-1.37,2.16-2.43,3.7-2.93.76-.26,1.59-.38,2.42-.41.63,0,1.27.03,1.9.14-.01.11-.02.21-.03.32-.02.36-.02.73,0,1.09.05.72.18,1.44.43,2.12l.23.61.45-.34c.52-.4,1.05-.79,1.56-1.2.52-.41,1.03-.82,1.53-1.25-.61.26-1.21.54-1.8.82-.39.18-.78.37-1.16.56Z"/>
            <path class="cls-8" d="M113.18,258.76c.03-.81.21-1.62.48-2.41.22-.59.48-1.17.8-1.72.1.05.19.1.29.15.33.15.67.28,1.02.38.69.21,1.41.35,2.13.35h.65s-.16-.54-.16-.54c-.19-.63-.36-1.26-.57-1.89-.2-.63-.4-1.25-.62-1.88.03.66.07,1.32.12,1.97.03.43.07.86.11,1.29-.12-.03-.24-.06-.35-.1-.3-.1-.59-.22-.87-.35-.28-.13-.55-.29-.82-.45-.26-.16-.53-.35-.73-.51l-.54-.45-.5.58c-.65.76-1.19,1.6-1.6,2.51-.41.92-.68,1.91-.77,2.94-.09,1.03.02,2.09.33,3.09.08.27.18.53.29.79-.52-.12-1.04-.26-1.55-.43-1.17-.38-2.31-.89-3.37-1.53-.53-.32-1.04-.68-1.55-1.05-.49-.39-.97-.8-1.43-1.24-.91-.89-1.72-1.9-2.45-2.99.38,1.26.99,2.47,1.76,3.57.78,1.1,1.73,2.1,2.83,2.92,1.09.83,2.29,1.53,3.57,2.03,1.28.52,2.62.86,3.99,1.04l2.34.32-1.43-1.91c-.98-1.3-1.5-2.89-1.42-4.5Z"/>
            <path class="cls-8" d="M151.71,244.17c-.51-.62-.92-1.33-1.23-2.1-.2-.53-.38-1.08-.5-1.64.06-.02.12-.03.19-.05.35-.11.7-.23,1.04-.38.68-.3,1.32-.7,1.89-1.17l.75-.62-.74-.54c-.61-.45-1.22-.89-1.84-1.32-.62-.43-1.23-.87-1.86-1.29-.63-.42-1.25-.85-1.89-1.26-.63-.41-1.27-.82-1.93-1.21.53.55,1.06,1.08,1.61,1.61.54.54,1.09,1.05,1.64,1.57.55.53,1.11,1.02,1.67,1.54.3.27.6.54.9.81-.26.13-.53.24-.82.34-.29.1-.57.19-.87.26-.28.07-.61.12-.85.14l-.87.07.06.9c.06,1.02.26,2,.61,2.95.35.95.84,1.87,1.5,2.67.65.81,1.46,1.5,2.37,2.01.27.15.55.28.83.4-.48.28-.97.55-1.48.78-1.12.53-2.3.93-3.52,1.18-1.22.28-2.48.37-3.75.34-1.27-.05-2.55-.24-3.83-.57,1.15.64,2.41,1.11,3.73,1.37,1.32.28,2.69.32,4.05.21,1.36-.14,2.71-.45,3.99-.94,1.28-.49,2.5-1.14,3.64-1.92l1.9-1.3-2.3-.43c-1.61-.3-3.06-1.13-4.07-2.38Z"/>
          </g>
        </g>
      </g>
    </g>
  </g>
  <path class="cls-8" d="M69.67,187.16c-1.49,1.24-2.93,2.56-4.29,3.95-1.35,1.4-2.68,2.83-3.88,4.37-.62.75-1.18,1.55-1.77,2.33-.25.34-.49.69-.72,1.03-.39-2.48-1.02-4.89-1.79-7.27-.48-1.45-1.03-2.87-1.65-4.27-.63-1.4-1.35-2.75-2.12-4.08-.82-1.34-1.71-2.65-2.7-3.89-.31.59-.63,1.18-.94,1.78.76.97,1.47,1.98,2.13,3.03,3.05,4.98,5.1,10.69,6.04,16.48l.27,1.68.89-1.41c.51-.81,1-1.63,1.54-2.43.54-.79,1.06-1.59,1.65-2.36,1.11-1.56,2.33-3.05,3.58-4.51,1.27-1.45,2.61-2.83,4.02-4.14,1.42-1.3,2.87-2.58,4.46-3.68-1.66.99-3.23,2.14-4.72,3.38Z"/>
  <path class="cls-8" d="M34.93,202.37c0,.33-.05.68-.12,1.02-.3,1.38-.83,2.76-1.37,4.13-.55,1.37-1.16,2.73-1.73,4.12-.58,1.39-1.18,2.77-1.65,4.24,1.02-1.16,1.91-2.4,2.7-3.71.8-1.3,1.51-2.67,2.08-4.1.56-1.43,1.05-2.93,1.14-4.56.02-.68-.01-1.43-.33-2.12-.24.19-.48.39-.72.57.01.13.02.25.01.39Z"/>
  <path class="cls-8" d="M135.13,286.08c-33.88,0-65.71-14.56-89.63-40.99-23.81-26.32-36.93-61.29-36.93-98.47s13.12-72.15,36.93-98.47C69.42,21.71,101.25,7.15,135.13,7.15s65.71,14.56,89.63,40.99c23.81,26.32,36.93,61.29,36.93,98.47s-13.12,72.15-36.93,98.47c-23.92,26.44-55.75,40.99-89.63,40.99ZM135.13,15.17c-65.36,0-118.53,58.96-118.53,131.44s53.17,131.44,118.53,131.44,118.53-58.96,118.53-131.44S200.49,15.17,135.13,15.17Z"/>
  <g>
    <path class="cls-4" d="M50.32,180.15c-6.63-7.3-14.74-9.11-17.38-9.66-3.7-.77-7.82-1.62-11.71.66-4.54,2.66-7.15,8.65-5.68,10.8.67.97,2.39,1.48,2.69,3.26.05.31,0,.28,0,1.09,0,2,.01,3.64.96,4.79.29.35.54.49,1.13,1.22,0,0,.44.54.81,1.11,1.17,1.8.6,5.29,2.13,6.95.77.83,1.94.9,4.08,1.08,1.09.1,2.03.18,3.2-.13,1.66-.44,2.27-1.26,3.26-1,.73.19,1.2.85,1.48,1.39,6.69-5.29,10.98-13.86,15.04-21.55Z"/>
    <path class="cls-10" d="M43.47,182.36s3.03-1.36,2.19-5.9c0,0-2.33-3.18-9.42-4.65,0,0,7.83,5.18,7.22,10.56Z"/>
    <path class="cls-8" d="M47.68,176.02c-1.13-1.07-2.39-1.99-3.67-2.86-1.32-.82-2.68-1.59-4.13-2.17l-1.08-.45-1.11-.37c-.73-.27-1.49-.44-2.24-.63-1.51-.36-3.03-.58-4.59-.73-1.57-.09-3.15-.05-4.71.19-1.56.26-3.09.68-4.55,1.3-1.46.63-2.84,1.48-4.03,2.57-1.19,1.09-2.22,2.43-2.8,4.02-.15.39-.22.82-.33,1.23-.06.4-.13.78-.16,1.18-.08.79-.1,1.63.09,2.52.09.44.27.9.54,1.31.27.42.64.76,1.01,1.03.54.36,1.05.58,1.51.79-.06.25-.11.49-.15.74-.09.48-.14.96-.16,1.45-.04.97.05,1.97.33,2.93.26.97.79,1.88,1.45,2.63.56.68,1.29,1.15,2.03,1.57.01.9.11,1.76.29,2.63.22.99.55,1.98,1.12,2.88.55.9,1.41,1.66,2.43,2.03,1.03.35,2.03.4,3.03.38,1.01-.04,2-.24,2.94-.54.94-.3,1.84-.7,2.72-1.12.04-.02.08-.04.12-.06.24.04.46.11.65.22.29.17.49.41.58.71.06.17.1.37.11.56.24-.19.48-.38.72-.57-.06-.12-.12-.23-.19-.35-.25-.38-.66-.66-1.09-.74-.12-.03-.25-.03-.37-.04.7-.34,1.39-.68,2.08-1.03.87-.43,1.75-.83,2.65-1.2-1.85.59-3.64,1.37-5.43,2.11-1.78.73-3.63,1.35-5.51,1.3-.92-.02-1.9-.15-2.68-.47-.8-.34-1.43-.98-1.87-1.74-.87-1.54-1.1-3.51-1.02-5.31v-.32c.47-.85,1.01-1.64,1.66-2.32.65-.71,1.39-1.3,2.18-1.76.8-.46,1.69-.6,2.51-.94.41-.2.85-.32,1.29-.53.45-.2.93-.34,1.44-.64v-.2c-.98-.57-2.12-.76-3.24-.57-.28.05-.56.08-.82.2-.26.1-.52.23-.77.37-.24.14-.46.33-.69.49-.23.16-.44.34-.65.52-.43.34-.8.75-1.16,1.16-.16.22-.33.43-.48.65l-.42.68c-.47.87-.83,1.78-1.02,2.72l-.17-.1c-.71-.43-1.41-.88-1.9-1.53-.51-.62-.9-1.33-1.09-2.12-.2-.78-.26-1.62-.2-2.45.06-.82.23-1.7.49-2.43l.12-.34c.45-.82.98-1.6,1.61-2.26.65-.71,1.39-1.3,2.18-1.76.8-.46,1.69-.6,2.51-.94.41-.2.85-.32,1.29-.53.45-.2.93-.34,1.44-.64v-.2c-.98-.57-2.12-.76-3.24-.57-.28.05-.56.08-.82.2-.26.1-.52.23-.77.37-.24.14-.46.33-.69.49-.23.16-.44.34-.65.52-.43.34-.8.75-1.16,1.16-.16.22-.33.43-.48.65l-.42.68c-.41.77-.74,1.56-.94,2.38l-.33-.19c-.73-.41-1.43-.68-1.9-1.03-.46-.34-.72-.74-.84-1.34-.11-.59-.11-1.27-.02-1.96.03-.34.1-.7.16-1.04.1-.31.15-.63.27-.93.47-1.23,1.33-2.33,2.36-3.23,1.04-.9,2.25-1.65,3.54-2.2,1.3-.55,2.68-.92,4.08-1.14,1.41-.21,2.84-.23,4.27-.15,1.42.15,2.87.37,4.28.69.7.18,1.41.33,2.09.57l1.03.34,1,.41c1.34.53,2.61,1.24,3.84,1.99,1.2.81,2.37,1.65,3.43,2.64,1.25,1.11,2.39,2.35,3.43,3.68.32-.6.63-1.19.94-1.78-.94-1.18-1.96-2.29-3.08-3.31Z"/>
  </g>
  <g>
    <path class="cls-4" d="M231.06,223.19c-2.45-.98-6.17-2.18-10.83-2.53-2.7-.2-5.06-.38-7.98.36-7.05,1.79-10.97,7.31-12.11,8.92-.38.54-.72,1.07-1.04,1.6-.43,2.88-.75,7.45.47,12.82.96,4.21,2.55,7.5,3.85,9.74.61-.47,1.23-.93,1.84-1.4.46.21,1.17.49,2.07.6,2.59.32,4.56-.97,5.15-1.36,1.16-.78,1.92-1.72,2.4-2.49.5-1.23,1.01-2.46,1.51-3.7,0,0,8.42-.37,9.17-6.82,0,0,9.29-3.52,5.49-15.74Z"/>
    <path class="cls-8" d="M216.4,245.75l-.7,1.09c.31-.02.62-.04.93-.07,0-.01,0-.03,0-.04-.05-.32-.09-.6-.22-.97Z"/>
    <path class="cls-8" d="M232.46,225.66c-.46-1.35-1.33-2.6-2.43-3.51-1.1-.92-2.39-1.54-3.71-1.91-1.32-.37-2.67-.53-4.01-.53-.66,0-1.37.05-1.95.07-.61.03-1.22.03-1.85.02-1.25-.02-2.56-.07-3.89.06-1.33.12-2.65.43-3.89.9-.63.21-1.22.51-1.82.78-.57.31-1.16.6-1.71.96-.55.35-1.1.69-1.62,1.08-.53.37-1.05.75-1.55,1.16-1.04.74-2.01,1.75-2.72,2.85-.72,1.11-1.24,2.33-1.56,3.6-.61,2.53-.51,5.17.12,7.63-.2-1.25-.24-2.53-.17-3.78.07-1.25.29-2.49.68-3.67.38-1.18.94-2.29,1.67-3.26.75-.98,1.58-1.79,2.65-2.48.5-.37,1.03-.7,1.55-1.04.52-.35,1.06-.64,1.6-.95.27-.16.54-.3.82-.43l.83-.41c.57-.23,1.12-.49,1.7-.66,1.15-.38,2.33-.61,3.53-.67,1.2-.07,2.44.02,3.72.06.64.02,1.3.04,1.96.02.69-.01,1.25-.05,1.86-.03,1.2.03,2.38.2,3.5.54,1.11.34,2.16.85,3,1.57.85.71,1.47,1.63,1.82,2.68.35,1.05.47,2.19.39,3.36-.1,1.16-.29,2.33-.72,3.37-.44,1.04-1.09,1.96-1.96,2.64-.42.36-.91.62-1.4.86-.25.11-.51.21-.77.29-.13.03-.26.08-.39.1-.12.03-.28.06-.35.07l-.34.04c-.19-.24-.38-.48-.59-.71-.21-.22-.42-.44-.64-.65-.23-.2-.46-.4-.7-.59l-.72-.6c-.25-.19-.53-.33-.84-.39-.31-.07-.63-.09-.97-.05-.33.03-.68.13-1.03.32l-.05.19c.2.36.42.6.63.82.21.23.43.4.65.56.43.34,1.02.33,1.54.53.51.19,1.03.41,1.55.65.22.1.44.21.66.32v.5c-.03,1.05-.2,2.07-.67,2.97-.45.9-1.17,1.66-2.04,2.28-.87.61-1.88,1.06-2.93,1.4-1.05.33-2.19.57-3.25.66l-.31.03c-.08-.18-.16-.36-.25-.53-.22-.47-.46-.92-.71-1.37-.25-.45-.36-1-.79-1.3-.2-.16-.43-.3-.7-.4-.27-.11-.56-.19-.94-.21l-.16.13c-.07.38-.05.68,0,.97.04.29.13.54.24.78.2.49.72.71,1.1,1.05.38.34.77.67,1.18.99.11.09.23.17.34.26l.29.71c.05.13.11.38.15.59.03.22.05.44.04.66-.03.44-.08.89-.27,1.3-.33.84-.99,1.55-1.8,2.11-.81.56-1.73,1.01-2.72,1.34-.98.36-1.95.62-2.93.53-.97-.05-1.88-.47-2.59-1.17-.72-.69-1.23-1.62-1.62-2.59-.39-.97-.66-2.01-.85-3.05-.19-1.05-.32-2.11-.35-3.19-.12,2.14.02,4.33.67,6.43.33,1.04.81,2.08,1.58,2.94.76.87,1.88,1.48,3.05,1.62,1.17.17,2.35-.09,3.38-.42,1.07-.3,2.12-.73,3.1-1.35.98-.6,1.89-1.49,2.4-2.64.28-.56.4-1.19.45-1.81.02-.3,0-.6-.02-.9-.3.03-.61.06-.93.07l.7-1.09c.13.38.17.65.22.97,0,.01,0,.03,0,.04.94-.1,1.84-.28,2.75-.53,1.19-.35,2.37-.84,3.45-1.56,1.07-.72,2.04-1.68,2.68-2.88.52-.94.8-1.99.9-3.03.09-.02.19-.05.29-.08.34-.1.68-.23,1.01-.37.65-.3,1.28-.65,1.84-1.11,1.14-.88,2.01-2.09,2.57-3.39.55-1.31.8-2.67.9-4.03.08-1.36-.07-2.78-.53-4.14Z"/>
  </g>
  <g>
    <path class="cls-12" d="M270.45,181.98c-.57-2.45-2.02-4.72-3.78-6.72-.89-1-1.86-1.94-2.88-2.84-1.03-.91-2.09-1.78-3.18-2.6-4.34-3.28-9.31-5.76-14.66-6.37-5.06-.62-10.24.35-15.19,1.96.47-.05.93-.09,1.4-.12,2.26-.1,4.56.07,6.8.77,4.4,1.49,8.07,4.58,10.32,8.4l-.16.13c-1.56-1.54-3.22-2.92-5.02-4.05-.9-.56-1.83-1.07-2.78-1.48-.95-.42-1.95-.82-2.92-1.06-1.98-.51-4.08-.68-6.19-.71-2.11-.02-4.25.19-6.36.57-1,.19-1.99.41-2.97.67-2.74,1.24-5.44,2.6-8.1,4.01-4.92,2.62-9.75,5.46-14.54,8.35l-3.59,2.19c-1.19.74-2.45,1.46-3.74,2.08-1.77.85-3.61,1.55-5.48,2.11-.36.11-.82.24-1.36.38-.2.06-.4.11-.62.16-.2.05-.4.1-.62.15-.37.09-.74.16-1.1.23-1.15.23-2.26.39-3.32.51-.65.08-1.29.13-1.91.17-.08,0-.15.01-.23.02-.1,0-.2.01-.3.02-.31.02-.62.03-.92.04-.21,0-.41.01-.61.01-.2,0-.38,0-.57,0h-.06c-.31,0-.61,0-.9-.02-.14,0-.28,0-.42-.01-.21-.01-.42-.02-.63-.03-.12,0-.23-.01-.34-.02-.22-.01-.43-.03-.64-.04-.3-.03-.59-.05-.87-.08-.2-.02-.38-.04-.56-.06-.22-.03-.43-.05-.63-.08-.77-.1-1.43-.21-1.98-.31-.39-.07-.72-.14-.98-.2-2.78-.6-5.52-1.51-8.02-2.91-1.25-.69-2.44-1.52-3.51-2.51-.34-.32-.65-.65-.96-1,.15.6.3,1.2.46,1.8.45,1.69.91,3.38,1.4,5.06,1.53,1.8,3.24,3.48,5.03,5.03,2.1,1.81,4.33,3.45,6.71,4.84.09.05.17.1.26.15.25.15.51.3.8.45,2.56,1.43,6.72,3.41,12.11,3.95.28.03.57.06.85.08.14.01.27.02.4.03.37.03.75.04,1.13.05.15,0,.3,0,.46,0,.14,0,.27,0,.41,0,.15,0,.29,0,.44-.01.3,0,.62-.02.94-.04,1.57-.11,3.46-.36,5.57-.92.55-.15,1.12-.31,1.7-.5.04-.01.07-.03.1-.04.44-.15.89-.31,1.34-.48l1.77-.74,1.15-.55c.19-.1.38-.19.57-.29l1.12-.61,3.62-2.14c1.23-.69,2.47-1.38,3.75-2.02,2.53-1.28,5.14-2.43,7.82-3.4,5.36-1.92,11.11-3.1,16.91-2.78,2.89.14,5.77.66,8.54,1.5,2.76.85,5.42,2.04,7.92,3.41.63.35,1.25.7,1.86,1.06l.46.27c.15.09.32.19.44.25.25.14.52.27.8.38,1.12.44,2.4.61,3.68.59,2.58-.04,5.2-.78,7.55-1.96,2.34-1.19,4.44-2.88,5.81-5.01.68-1.06,1.14-2.23,1.36-3.43.21-1.21.16-2.46-.13-3.67Z"/>
    <path class="cls-3" d="M211.1,115.11c4.5.56,9.01,1.12,13.51,1.68-1.04,1.97-2.07,3.94-3.11,5.91-2.11,3.91-4.68,6.15-6.3,7.34-3.86,2.82-7.95,3.75-11.55,4.56-1.96.44-3.64.68-4.84.81l7.03-12.85,5.26-7.45Z"/>
    <g>
      <path class="cls-5" d="M215.58,156.92s.65,7.44,2.53,5.31c1.88-2.13,2.87-6.44,2.87-6.44,0,0-2.82,1.52-5.4,1.14Z"/>
      <path class="cls-8" d="M220.62,155.1c-.35.19-.76.4-1.16.58-.41.17-.81.36-1.23.5-.42.16-.84.29-1.28.4-.22.05-.44.11-.67.14-.11.03-.22.05-.38.06-.14.02-.27.05-.37.07-.02.02-.03.09-.02.09v.03s0,.06,0,.06v.11s.01.22.01.22l.02.44c.02.3.04.59.07.89.06.59.14,1.18.25,1.77.12.59.24,1.18.56,1.78.08.15.18.3.32.45.14.14.34.3.62.33.14.03.27,0,.4-.02.1-.04.24-.08.31-.14.18-.11.32-.25.43-.37.86-.94,1.46-2.02,1.98-3.12.52-1.11.99-2.21,1.26-3.43l.37-1.69-1.49.83ZM217.79,161.88c-.15.2-.31.31-.33.29-.03.04-.23-.11-.36-.32-.28-.43-.49-.98-.66-1.52-.17-.55-.32-1.12-.44-1.69l-.18-.86-.08-.43-.04-.22-.02-.11v-.03c.11.04.2.09.28.13.07.05.19.07.32.1.24.06.49.09.73.11.49.04.99.03,1.49-.03.46-.07.92-.15,1.36-.28-.16.63-.34,1.26-.55,1.87-.38,1.07-.85,2.12-1.51,2.98Z"/>
    </g>
    <path class="cls-3" d="M204.17,133.09c-.19.15-.38.29-.56.43-1.08.87-2.15,1.72-3.18,2.65-1.02.93-2,1.9-2.89,2.94-.5,0-.99.06-1.48.14-.75.11-1.49.26-2.24.42-1.48.34-2.94.77-4.38,1.31-.93.34-1.84.74-2.72,1.2.97-.94,1.8-2.01,2.48-3.15,1.07-1.81,1.81-3.77,2.27-5.78.96.39,1.95.71,2.96.94,2.9.69,6.07.51,8.85-.68.31-.13.6-.28.9-.43Z"/>
    <path class="cls-12" d="M205.93,149.29c-1.97.29-10.67,1.29-11.89-2.97-.69-2.43,3.71-5.5,8.37-7.06,2.04-.69,3.71-.95,4.91-.95s1.96.27,2.11.66c1.07,2.77-1.97,8.09-3.5,10.32Z"/>
    <path class="cls-8" d="M185.78,183.59c.01.89.06,1.78.13,2.66-.47.13-.93.27-1.4.38-5.36,1.27-11.01,1.43-16.43.37-2.7-.54-5.36-1.39-7.77-2.69-1.2-.65-2.34-1.42-3.35-2.33-.88-.79-1.63-1.71-2.21-2.73-.36-1.39-.76-2.8-1.14-4.2-1.69-5.6-3.9-11.01-6.36-16.27-2.48-5.27-5.21-10.4-8.13-15.41-1.44-2.51-2.95-5-4.43-7.46l-.54-.92c-.19-.31-.33-.59-.49-.89-.26-.52-.38-1-.34-1.39.05-.38.19-.62.47-.76.28-.14.7-.18,1.15-.04.46.15.93.43,1.37.83.52.47,1.03.96,1.54,1.45,1.03.99,2.03,2.01,3.02,3.03,1.98,2.07,3.89,4.19,5.72,6.38,1.82,2.2,3.55,4.46,5.15,6.81.39.59.81,1.17,1.18,1.78l1.12,1.81,1.04,1.87.26.47.31.52c.2.32.41.63.61.93,1.66,2.46,3.53,4.74,5.59,6.87,1.12,1.16,2.31,2.25,3.55,3.28-.04.02-.08.03-.12.05-1.69.63-3.36,1.34-4.92,2.33-.33.21-.43.64-.23.98.2.34.64.45.98.25h.01c1.44-.87,3.06-1.5,4.69-2.07.35-.12.71-.24,1.07-.35.57.44,1.15.85,1.75,1.26,1.24.82,2.52,1.58,3.85,2.25,1.34.65,2.71,1.24,4.14,1.7t.01,0c-.51.4-1.01.8-1.51,1.21-1.38,1.14-2.73,2.32-4,3.59-1.27,1.28-2.5,2.61-3.51,4.17-.21.33-.13.76.19.98.33.23.77.14,1-.19h.01c.95-1.39,2.16-2.64,3.41-3.84,1.25-1.19,2.6-2.31,3.98-3.38.85-.67,1.72-1.31,2.59-1.95.72.18,1.45.32,2.19.42.74.14,1.48.18,2.23.25.37.04.75.03,1.12.05.37,0,.75.04,1.12,0,.36,0,.72-.02,1.08-.04-.52,2.64-.74,5.3-.73,7.97Z"/>
    <path class="cls-8" d="M196.17,214.89c-1.05,2.39-3.25,4.19-5.72,5.32-2.49,1.15-5.26,1.73-8.03,1.88-1.37.07-2.82.06-4.09-.15-1.3-.22-2.55-.72-3.72-1.38-1.16-.67-2.25-1.5-3.23-2.46-.98-.96-1.9-2.01-2.73-3.13-1.67-2.24-3.09-4.7-4.35-7.24-2.5-5.11-4.43-10.52-6.12-15.99-.07-.21-.13-.42-.19-.62,1.09,1.18,2.23,2.31,3.42,3.39,2.12,1.9,4.39,3.62,6.82,5.11,4.84,2.98,10.43,4.98,16.22,5.19,2.89.11,5.79-.24,8.58-.98.18-.05.36-.1.54-.15,0,0,0,0,0,0,.83,1.12,1.58,2.3,2.14,3.55.56,1.24.96,2.55,1.06,3.86.1,1.31-.09,2.62-.61,3.8Z"/>
    <line class="cls-6" x1="96.35" y1="209.95" x2="96.35" y2="210"/>
    <polyline class="cls-6" points="147.99 226.77 147.91 226.77 147.42 226.79 147.2 226.79"/>
    <line class="cls-6" x1="118.48" y1="94.69" x2="117.62" y2="93.32"/>
    <path class="cls-4" d="M218.55,144.74h.03c1.81.1,3.57.25,5.34.44.52.06,1.03.12,1.54.19,0-.11.02-.21.02-.32.05-2.09-.36-4.21-1.1-6.19-.06.03-.13.05-.19.07-1.64.6-3.29,1.23-4.88,1.91h-.01c-.51.22-1.1-.02-1.32-.53-.22-.51.02-1.1.53-1.31,0,0,.02-.01.03-.01,1.68-.66,3.35-1.25,5.04-1.82.02,0,.03-.01.05-.02-1.09-2.16-2.66-4.12-4.69-5.3-1.07,1.05-2.13,2.12-3.14,3.21h-.01c-.38.42-1.01.44-1.41.07s-.43-1.01-.06-1.42c0,0,.01-.02.02-.02.89-.91,1.8-1.79,2.71-2.65-1.8-.5-3.8-.44-5.68-.1-2.55.5-4.89,1.89-7.11,3.44-1.1.79-2.23,1.59-3.29,2.42-.71.55-1.39,1.12-2.07,1.71.94-.44,1.91-.83,2.89-1.16,3.93-1.32,8.5-1.78,9.52.89,1.72,4.46-3.39,11.74-3.98,12.55l-.24.33-.4.07c-.21.04-2.32.42-4.88.42-3.79,0-8.57-.82-9.69-4.74-.74-2.58,1.31-5.09,4.34-7.02-.09.03-.18.05-.26.07-.72.2-1.42.44-2.11.68-1.39.5-2.73,1.09-4.03,1.77-2.6,1.35-4.99,2.99-7.23,4.82-.57.45-1.1.94-1.64,1.42-.52.51-1.04,1.01-1.53,1.54-1.02,1.04-1.93,2.18-2.82,3.34-.59.78-1.14,1.58-1.67,2.41.5.1,1,.2,1.5.31,1.74.39,3.46.8,5.2,1.29.53.15.84.7.7,1.23-.15.53-.7.85-1.24.7,0,0-.02,0-.02,0h-.02c-1.65-.52-3.36-.98-5.05-1.4-.7-.17-1.39-.33-2.09-.49-.68,1.15-1.32,2.33-1.92,3.55.27-1.26.64-2.51,1.1-3.73-.74-.16-1.47-.32-2.22-.46-1.72-.32-3.44-.6-5.17-.75-1.72-.16-3.46-.24-5.13-.04h-.01c-.4.05-.75-.23-.8-.63-.05-.39.23-.74.61-.79,1.84-.27,3.66-.23,5.45-.12,1.8.12,3.58.35,5.34.63.88.14,1.75.3,2.62.47.47-1.03,1-2.03,1.59-2.99,1.57-2.62,3.59-5,5.92-7.01.24-.21.49-.41.73-.6-2.68,1.05-5.7,1.18-8.47.53-2.92-.67-5.61-2.05-7.97-3.8-4.73-3.53-8.24-8.44-10.56-13.8-2.14-5.43-3.11-11.39-2.25-17.23.44-2.9,1.37-5.78,2.97-8.31,1.57-2.53,3.94-4.64,6.75-5.76,2.81-1.11,5.95-1.2,8.8-.45.88.23,1.74.52,2.57.86.52-2.12,1.34-4.17,2.52-6.04,1.57-2.53,3.94-4.64,6.75-5.76.02,0,.03-.01.05-.02l-.08-.02c.04-.07.1-.27.13-.41.04-.17.07-.33.1-.5.03-.17.03-.34.05-.51v-.51c-.06-.68-.24-1.35-.63-1.95-.22-.33-.5-.63-.81-.91-1.73-.45-3.35-.84-4.9-.92-.77-.02-1.52.01-2.24.15-.72.15-1.41.37-2.07.68-1.33.62-2.56,1.57-3.71,2.71-1.15,1.13-2.22,2.42-3.34,3.81.16-1.79.82-3.5,1.81-5.04.99-1.53,2.39-2.91,4.17-3.75.88-.41,1.85-.68,2.83-.77.98-.08,1.96.03,2.87.27.19.05.36.11.54.18-.99-.82-2.04-1.56-3.14-2.2-1.48-.87-3.06-1.56-4.69-2.06-.82-.25-1.64-.45-2.49-.63-.84-.18-1.68-.34-2.52-.45-1.69-.24-3.39-.32-5.08-.29l-1.8.04.47-.47c.87-1.13,1.31-2.49,1.59-3.85.16-.77.26-1.56.32-2.35.07-.79.1-1.58.1-2.38-.02-1.59-.09-3.18-.25-4.77-.05-.46-.1-.92-.16-1.39-.43.54-.9,1.04-1.4,1.5-.68.62-1.41,1.17-2.17,1.67-.38.25-.78.46-1.17.69l-1.2.6-.08.04-.12.04c-.88.25-1.87.61-2.77,1-.93.39-1.82.84-2.7,1.32-.87.49-1.72,1.02-2.52,1.61-.81.59-1.54,1.26-2.26,1.96-.35.35-.69.74-1.02,1.13-.33.4-.66.79-.98,1.2l-1.95,2.47c-.66.84-1.49,1.62-2.42,2.16-.59.35-1.2.63-1.82.89-.6.33-1.24.56-1.89.71.51-.28,1-.55,1.43-.91.44-.34.83-.73,1.15-1.17.66-.85,1.05-1.87,1.23-2.91.2-1.04.19-2.12.06-3.18-.02-.17-.05-.34-.07-.5-.06.08-.1.15-.16.22-.6.83-1.27,1.57-1.96,2.28-1.38,1.4-2.87,2.63-4.39,3.81h-.02s-.09.07-.09.07c-1.76,1.19-3.5,2.42-4.96,3.96-.8.71-1.44,1.56-2.16,2.36-.63.86-1.31,1.69-1.87,2.61-.61.89-1.11,1.85-1.62,2.8l-.72,1.46-.64,1.5c-.66,1.59-1.19,3.25-1.62,4.94v.02s-.34,1.48-.34,1.48l-1.08-1.2c-2.08-2.32-4.41-4.53-6.8-6.6-2.4-2.07-4.9-4.03-7.5-5.84-5.2-3.63-10.75-6.76-16.63-9.06-2.93-1.17-5.94-2.16-9-2.87l-1.15-.28-1.16-.23c-.77-.14-1.54-.32-2.32-.43l-2.34-.33c-.78-.13-1.56-.15-2.35-.23-1.56-.18-3.14-.15-4.7-.21l-2.36.08c-.39.02-.78.02-1.17.04l-1.17.12c-.78.08-1.56.14-2.34.23l-2.33.37c-.39.07-.77.12-1.16.19l-1.15.26-1.02.23c2.39,6,4.7,12.02,6.92,18.08,1.18,3.25,2.34,6.49,3.42,9.8,1.05,3.32,1.98,6.63,3.02,9.89,2.09,6.49,4.54,12.9,8.34,18.44,1.89,2.75,4.12,5.26,6.74,7.26,1.29,1.03,2.71,1.87,4.17,2.62,1.46.74,3.02,1.28,4.59,1.75l9.45,2.81-9.85-.38c-.3-.02-.74,0-1.12.03-.4.03-.8.07-1.19.13-.8.11-1.59.27-2.38.47-1.57.4-3.11.97-4.58,1.68-2.95,1.41-5.64,3.37-7.97,5.71-2.36,2.32-4.34,5.03-6.05,7.89-1.27,2.14-2.38,4.38-3.34,6.69,1.34-.52,2.69-1.01,4.06-1.47,2.19-.74,4.41-1.4,6.64-2,2.23-.61,4.49-1.11,6.78-1.53,2.28-.44,4.58-.72,6.9-.93l5.68-.54-5.26,2.3h0c-.96.44-1.97,1.01-2.91,1.6-.95.61-1.87,1.26-2.75,1.97-1.76,1.4-3.37,2.99-4.8,4.73-2.87,3.46-4.93,7.55-6.12,11.87-.58,2.17-.92,4.39-1.12,6.63-.04,1.12-.15,2.25-.1,3.38.01.56,0,1.13.03,1.69l.12,1.69c.24,3.05.78,6.09,1.53,9.08.04-.09.07-.17.11-.26.65-1.45,1.37-2.87,2.14-4.26,1.55-2.77,3.42-5.39,5.63-7.7,2.2-2.34,4.81-4.24,7.6-5.73,1.4-.74,2.85-1.39,4.35-1.9.38-.13.76-.25,1.15-.35.2-.05.39-.1.59-.15.11-.02.21-.05.32-.06.05-.01.12-.02.19-.03.03,0,.11,0,.17,0,.03,0,.14.01.26.07.14.09.22.14.31.33.07.54-.14.64-.16.66-.06.06-.1.08-.1.08-.13.08-.16.09-.22.12l-.15.06-.27.11-.53.22c-.35.15-.7.3-1.04.46-2.75,1.26-5.31,2.99-7.37,5.18-1.03,1.09-1.93,2.29-2.66,3.58-.74,1.29-1.29,2.68-1.71,4.1-1.49,5.22-.74,10.87,1.75,15.63.27-.36.55-.71.84-1.05.66-.77,1.35-1.51,2.11-2.18,1.51-1.34,3.2-2.52,5.1-3.29,1.87-.8,3.92-1.19,5.92-1.13,2.01.07,3.96.58,5.73,1.41-.42-.1-.83-.19-1.25-.26l-.51,3.64c.06-.35.13-.7.19-1.05.04,2.54.16,5.06.37,7.55.12,1.25.26,2.49.41,3.73.1.77.22,1.53.35,2.29,1.36-.68,2.7-1.39,4.01-2.16.84-.49,1.69-.98,2.52-1.5.83-.51,1.65-1.05,2.46-1.59l1.97-1.34.18,2.45c.03.44.05.88.08,1.31l.66-.54c.96-.77,1.9-1.55,2.87-2.32l1.73-1.37.65,2.09c.58,1.87,1.16,3.74,1.72,5.62l.13.44,1.68-1.15.77-.53.73.47c1.77,1.14,3.6,2.34,5.23,3.87.82.76,1.58,1.59,2.24,2.53.17.23.31.48.47.72.15.25.28.51.41.76l.35.78c.09.21.17.39.22.47.05-.03.11-.07.18-.12.45-.32.9-.64,1.37-.92.95-.56,1.95-1.02,2.97-1.38,2.05-.72,4.23-1.01,6.33-.84-.05,0-.09.01-.14.02,1.44-.09,4.84.68,7.01.86-.18-.05-.09-.15.43-.36,0,0,1.68-.92,4.4-.15.48.14,1.03.21,1.6.25l.96.02c2.39-.04,4.86-.65,4.86-.71h0c-1.1-1.45-2.1-2.95-3.04-4.46-.93-1.51-1.82-3.03-2.67-4.57-.85-1.52-1.71-3.08-2.46-4.68-1.51-3.2-2.78-6.53-3.58-10.01,2.07,2.9,3.93,5.84,5.83,8.75l5.65,8.75c1.89,2.88,3.77,5.73,6.11,8.01,1.17,1.13,2.45,2.12,3.86,2.88.7.38,1.44.71,2.19,1,.76.29,1.56.43,2.34.63,3.13.77,6.44.84,9.63.17,3.2-.69,6.32-2.05,9.05-3.93,1.36-.94,2.63-2.03,3.73-3.25,1.08-1.22,2.02-2.58,2.61-4.07.3-.74.51-1.5.62-2.28.1-.78.11-1.56-.02-2.34-.11-.74-.33-1.47-.63-2.18-.11.48-.26.94-.45,1.39-.63,1.47-1.61,2.75-2.75,3.8-1.15,1.05-2.46,1.88-3.84,2.52-2.75,1.3-5.74,1.93-8.72,2.12-1.5.08-2.95.1-4.54-.13-1.55-.25-3.03-.83-4.38-1.58-1.34-.76-2.57-1.69-3.67-2.73-1.09-1.05-2.09-2.18-2.99-3.36-1.8-2.37-3.29-4.93-4.61-7.54-2.62-5.25-4.63-10.74-6.35-16.29-.86-2.77-1.66-5.56-2.41-8.37-.37-1.4-.73-2.8-1.08-4.21-.37-1.38-.75-2.74-1.13-4.12-1.67-5.45-3.85-10.75-6.29-15.93-2.46-5.18-5.17-10.24-8.07-15.2-1.44-2.49-2.94-4.93-4.44-7.42l-.56-.94c-.19-.31-.38-.67-.56-1.01-.38-.77-.7-1.71-.6-2.77.02-.13.03-.26.05-.4l.12-.4c.07-.27.22-.52.36-.77.15-.25.36-.46.55-.67.23-.17.45-.38.7-.49,1.02-.53,2.15-.5,3.05-.22.92.29,1.69.81,2.32,1.38.55.5,1.07,1,1.6,1.51,1.04,1.02,2.07,2.06,3.07,3.11,2.01,2.11,3.95,4.29,5.81,6.53,1.86,2.26,3.62,4.59,5.26,7.03.4.62.82,1.21,1.19,1.85l1.14,1.9,1.04,1.93.26.48.25.42c.18.3.37.59.56.88,2.63,3.98,5.85,7.63,9.58,10.61.88-.28,1.77-.53,2.65-.77,1.73-.47,3.47-.87,5.21-1.23,1.75-.36,3.49-.69,5.28-.95.55-.09,1.06.3,1.14.84.09.55-.29,1.06-.84,1.14,0,0-.02,0-.02,0h-.02c-1.72.22-3.46.49-5.18.8-1.73.31-3.44.66-5.14,1.07-.48.11-.95.23-1.41.35.13.09.25.19.37.28,1.16.79,2.35,1.52,3.59,2.17,1.25.62,2.52,1.2,3.85,1.64.42.14.85.27,1.28.4.28-.21.55-.42.83-.63,1.44-1.05,2.89-2.07,4.4-3.05.46-.31,1.08-.18,1.38.29.31.46.18,1.08-.29,1.39,0,0-.01,0-.02.01h-.02c-1.3.81-2.61,1.68-3.89,2.55.12.02.24.05.36.07.68.14,1.37.19,2.07.27.35.04.69.04,1.04.06.35,0,.69.05,1.05.02,2.82-.02,5.66-.28,8.39-.93,2.72-.66,5.37-1.68,7.62-3.27,2.25-1.58,4.09-3.74,5.22-6.25.57-1.25.98-2.58,1.23-3.95.13-.68.21-1.37.25-2.06.04-.68.05-1.4-.02-2.03l-.16-1.47,1.26.76c1.13.68,2.32,1.24,3.55,1.48.62.12,1.23.15,1.88.12.32,0,.64-.05.96-.08.31-.07.63-.09.94-.18,1.25-.28,2.45-.78,3.54-1.45,1.1-.66,2.09-1.5,2.9-2.46.83-.95,1.44-2.06,1.87-3.25.18-.53.32-1.08.42-1.63-.5-.05-1-.1-1.5-.14-1.74-.14-3.5-.25-5.23-.29h-.01c-.56-.02-.99-.47-.98-1.03.02-.55.47-.99,1.03-.98ZM68.68,80.63l1.37,3.12c.4,1.05.8,2.11,1.18,3.17,1.46,4.26,2.49,8.59,3.48,12.88l.71,3.21.74,3.2c.27,1.05.52,2.12.77,3.18l.86,3.15c1.19,4.19,2.71,8.28,4.8,12.18-2.82-3.42-4.9-7.44-6.58-11.56l-1.18-3.12c-.36-1.05-.73-2.1-1.07-3.15l-.98-3.17-.94-3.17c-1.21-4.23-2.39-8.43-3.86-12.47-1.46-4.04-3.24-7.92-5.6-11.4l-2.14-3.15,3.75.45c3.45.42,6.83,1.31,10.02,2.61,3.2,1.29,6.2,3.02,8.95,5.05.68.53,1.35,1.05,2.01,1.59l1.89,1.72,1.79,1.82c.56.64,1.1,1.29,1.64,1.94,2.11,2.65,3.87,5.57,5.11,8.66-1.82-2.79-3.91-5.36-6.24-7.64-.6-.56-1.21-1.1-1.79-1.66l-1.87-1.56-1.95-1.45c-.68-.44-1.35-.89-2.02-1.34-2.72-1.73-5.64-3.11-8.65-4.18-1.85-.65-3.73-1.17-5.64-1.55l1.42,2.68ZM95.16,108.74c-.24.42-.56.82-.97,1.14s-.92.58-1.47.67c-.55.1-1.11.07-1.63-.05-1.05-.23-1.97-.73-2.78-1.3-.19-.14-.37-.28-.55-.42-.11.84-.17,1.7-.15,2.55.04,1.52.25,3.05.65,4.57.19.76.41,1.52.67,2.29l.39,1.17c.07.21.14.39.2.69.08.27.07.53.08.79-.05,1.01-.4,1.85-.82,2.61-.43.75-.93,1.44-1.52,2.05.3-.79.55-1.57.73-2.36.19-.77.25-1.57.14-2.21-.05-.15-.07-.31-.14-.43-.04-.11-.15-.3-.25-.47l-.58-1.11c-.38-.76-.73-1.55-1.02-2.37-.59-1.63-.96-3.39-1.01-5.17-.06-1.78.21-3.58.79-5.26l.74-2.14,1.29,1.76c.22.3.51.64.78.95.28.31.58.61.88.9.61.57,1.26,1.06,1.96,1.37.69.3,1.43.41,2.17.1.74-.3,1.41-.93,2.01-1.64-.14.44-.3.89-.56,1.3ZM119.62,185.13c-.3-.18-.59-.38-.9-.54l-.93-.46c-1.25-.59-2.55-1.05-3.88-1.39-1.33-.35-2.68-.58-4.04-.74-1.35-.15-2.76-.23-4.05-.17l-1.79.08.84-1.61c.45-.86.95-1.7,1.6-2.44.63-.76,1.38-1.41,2.18-1.97.8-.56,1.67-1.02,2.58-1.37.02,0,.05-.02.07-.02-.43-.26-.86-.51-1.3-.75-1.23-.65-2.52-1.21-3.84-1.75-1.32-.51-2.66-.98-4.03-1.4-1.36-.43-2.76-.81-4.11-1.13l-3.15-.76,2.9-1.13c.64-.25,1.26-.52,1.91-.75.65-.21,1.28-.46,1.95-.63,1.31-.38,2.65-.62,3.99-.83,1.35-.16,2.7-.24,4.05-.19,1.34.06,2.69.2,3.97.57-1.33-.08-2.65,0-3.95.16-1.3.16-2.58.39-3.84.72-1.25.33-2.5.69-3.69,1.18-.25.09-.48.19-.72.29.44.1.88.21,1.32.32,1.43.39,2.86.8,4.27,1.32,2.8,1.03,5.57,2.34,8.01,4.33l2.29,1.88-2.99.32c-.13.02-.34.05-.53.08-.19.04-.38.08-.57.13-.39.09-.77.21-1.14.34-.75.27-1.46.63-2.13,1.05-.34.2-.65.45-.96.69-.29.27-.6.52-.86.82-.17.16-.32.34-.47.52.83.09,1.64.22,2.46.38,1.43.28,2.82.7,4.18,1.21,1.36.51,2.64,1.21,3.85,1.99,1.2.8,2.27,1.8,3.17,2.87-.59-.41-1.11-.87-1.73-1.21ZM128.08,123.59c-1.32-.42-2.7-.53-3.69-.03-.5.24-.91.62-1.26,1.09-.34.48-.66,1.06-.79,1.57-.14.53-.13.98.03,1.46.15.49.46,1.01.86,1.54.39.53.86,1.07,1.34,1.61.47.55.97,1.1,1.45,1.68.96,1.16,1.89,2.38,2.66,3.72,1.56,2.65,2.49,5.66,2.57,8.65-.58-1.38-1.16-2.72-1.87-3.98-.7-1.26-1.48-2.45-2.35-3.58-.86-1.12-1.81-2.18-2.8-3.23-.99-1.06-2.04-2.08-3.02-3.38-.48-.66-.95-1.4-1.22-2.34-.27-.92-.24-2.01.09-2.88.32-.89.77-1.59,1.36-2.26.58-.66,1.36-1.24,2.25-1.52.88-.29,1.81-.31,2.63-.13.83.17,1.58.48,2.26.87,1.35.79,2.51,1.79,3.44,2.97-1.28-.76-2.59-1.44-3.93-1.86ZM145.55,97.06c-1.02,1.45-1.93,3.08-2.77,4.99l-.48,1.07v-1.17c-.02-1.93.48-3.93,1.46-5.94.97-1.95,2.36-3.63,4.01-4.85,1.71-1.25,3.81-2.07,5.92-2.3,2.1-.21,4.21.05,6.09.75l1.1.41-1.17.08c-1.73.11-3.75.3-5.64.8-1.77.48-3.38,1.24-4.81,2.28-1.36,1.02-2.61,2.33-3.71,3.89Z"/>
    <line class="cls-6" x1="97.21" y1="203.95" x2="97.2" y2="203.98"/>
    <path class="cls-6" d="M148.22,226.76c-.26.05-.6.06-.99.04-.02,0-.03,0-.04,0-.07,0-.14-.01-.2-.01-.05-.01-.1-.01-.15-.02-.02,0-.03,0-.04,0"/>
    <path class="cls-6" d="M139.8,225.9h0c-1.19.07-2.64.52-3.5.82-.05.02-.1.04-.14.05-.18.07-.33.12-.44.17,0,0-.01,0-.02,0-.06.03-.11.05-.14.06-.02,0-.03.01-.03.01"/>
    <path class="cls-2" d="M49.56,69.02c7.72.19,17.74,1.26,28.93,4.65,18.21,5.53,31.17,14.72,38.78,21.13,0,0-.81-3.65-3.76-5.58s-20.49-19.98-42.46-22.36c-21.97-2.38-21.49,2.16-21.49,2.16Z"/>
    <path class="cls-3" d="M157.47,56.59s-.05.05-.07.07c-.57.52-1.2.97-1.86,1.4-.32.22-.67.41-1.01.61l-1.01.52c-1.06.33-1.99.72-2.94,1.16-.99.48-1.95,1-2.86,1.6-.92.59-1.79,1.26-2.61,2-.81.73-1.58,1.52-2.25,2.4-.66.89-1.25,1.74-1.84,2.63-.58.88-1.1,1.81-1.65,2.67-.43.69-.9,1.31-1.48,1.87.51-.67.9-1.43,1.16-2.22.38-1.17.52-2.39.53-3.6,0-.61-.05-1.21-.13-1.81-.08-.61-.17-1.17-.34-1.82l-.74-2.85-1.18,2.84c-.3.72-.75,1.43-1.31,2.1-.56.67-1.18,1.31-1.85,1.93-.51.48-1.04.93-1.58,1.39-.2-1.56-.35-3.12-.46-4.69-.09-1-.13-2.01-.17-3.01-.02-1-.07-2.01-.06-3,0-4,.25-7.99.99-11.87.69-3.88,2.04-7.61,3.94-10.95.98-1.64,2.15-3.16,3.54-4.39.65-.59,1.36-1.1,2.11-1.54-.14.54-.24,1.1-.29,1.67-.07.83.02,1.67.19,2.48.23.8.51,1.59.95,2.28.84,1.38,1.82,2.43,2.79,3.52l2.89,3.17c1.59,1.53,3.54,3.7,5.33,6.59,1.57,2.54,2.58,4.93,3.24,6.86Z"/>
    <path class="cls-8" d="M195.45,91.74c1.09.28,2.21.45,3.35.51.57.03,1.14.02,1.71,0,.09-.01.16,0,.22,0,0,.1-.03.3-.08.53l-.14.88c-.03.29-.06.59-.08.89,0,.29-.02.59,0,.89.03,1.18.21,2.35.49,3.47.53,2.26,1.43,4.33,2.3,6.33l.36.83.96-.02,2.1-.03-.14.46c-.59,1.94-1.15,3.89-1.73,5.83l-.64,2.17,2.27-.2c1.27-.1,2.53-.24,3.8-.36l.88-.09c-.22.39-.46.78-.69,1.18-.21.59-.42,1.17-.63,1.76,2.34-.07,4.88-.04,7.6.13,2.26.14,4.38.37,6.35.65-.3.8-.73,1.87-1.34,3.11-1.56,3.18-3.24,5.29-3.71,5.87-.89,1.09-2.13,2.47-3.8,3.89,2.47-1.75,5.84-4.62,8.68-9.02,1.32-2.05,2.26-4.02,2.94-5.74l-3.64-.06c-.8-.15-2.8-.53-4.9-.8-1.67-.21-2.84-.29-3.13-.31-.22-.02-.43-.02-.66-.04.34-.54.68-1.08,1.01-1.62l1.53-2.52-2.95.24-3.8.31c-.52.04-1.03.09-1.55.13.35-1.22.7-2.45,1.03-3.68l.42-1.54c.04-.21.1-.48.06-.89-.03-.41-.27-.94-.65-1.26-.38-.33-.77-.45-1.04-.5-.29-.05-.51-.05-.69-.05l-2.17.13c-.8-1.65-1.54-3.27-2.09-4.93-.31-.97-.54-1.96-.64-2.95-.05-.49-.06-.98-.06-1.48l.04-.75c.03-.3.07-.64,0-1.09-.04-.22-.11-.48-.28-.74-.17-.26-.43-.48-.71-.6-.58-.22-.99-.12-1.26-.09-.52.08-1.03.14-1.55.18-1.04.08-2.09.06-3.14-.06-.42-.04-.85-.11-1.27-.19-.14-.02-.28-.06-.42-.08,0,0-.02,0-.03,0-.03,0-.08-.02-.15-.03-.01,0-.02,0-.02,0-.12-.02-.28-.06-.47-.11-.05-.01-.1-.02-.15-.04-1.19-.31-2.36-.74-3.49-1.29h0s-.09-.04-.13-.06c1.72,1.35,3.76,2.34,5.94,2.9ZM200.86,92.27s-.03-.01-.04-.02c.05.01.08.02.04.02Z"/>
    <path class="cls-2" d="M132.47,69.49c.1-5.37.48-13.08,1.75-21.38.57-3.74,1.34-7.67,3.88-11.92,1.11-1.85,2.24-3.24,3.06-4.16-.17.57-.38,1.46-.31,2.54.29,4.74,5.44,7.1,9.89,11.64,2.05,2.09,4.64,5.36,6.74,10.37-2.03-7.19-4.96-11.81-7.79-14.29-6.23-5.46-7.62-9.15-5.06-13.81,0,0-4.52-.35-9.7,8.46-5.18,8.81-5,22.69-2.46,32.54Z"/>
    <path class="cls-2" d="M136.44,67.55c.28.69.65,1.92.44,3.41-.49,3.4-3.59,5.08-3.97,5.28.63-.08,1.83-.33,3.01-1.18,1.37-.99,2.06-2.21,2.25-2.93.73-2.74.22-6.54.22-6.54-.65.66-1.29,1.31-1.94,1.97Z"/>
    <path class="cls-2" d="M147.87,64.21c1.68-.76,3.09-1.19,4.06-1.45,2.27-.6,3.73-.46,5.62-1.5.84-.47,1.45-.98,1.84-1.34.34,1.72.64,4.41.06,7.59-.39,2.13-1.07,3.86-1.68,5.13.28-.19.68-.48,1.11-.9.67-.66,1.76-2.04,2.42-5.14,1.32-6.18,0-12.32,0-12.32-4.47,3.31-8.94,6.62-13.42,9.93Z"/>
    <path class="cls-2" d="M95.71,107.44s2.22-5.11-.3-10.08c-2.52-4.97-12.26-16.75-21.82-19.59-9.56-2.84-9.93-2.78-9.93-2.78,0,0,7.96,11.16,9.13,21.84,1.17,10.67,6.89,25.12,9.8,27.89.47.44,1.64,1.56,3.05,1.42,1.85-.18,3.53-2.46,3.59-4.54.02-.53-.08-.89-.59-2.5-.57-1.79-1.06-3.28-1.42-4.34-.06-2.05-.12-4.1-.19-6.14l1.36-.8,3.33,2.41,2.04-.8,1.22-.4.73-1.58Z"/>
    <path class="cls-8" d="M95.41,97.36c-1.82-2.79-3.91-5.36-6.24-7.64-.6-.56-1.21-1.1-1.79-1.66l-1.87-1.56-1.95-1.45c-.68-.44-1.35-.89-2.02-1.34-2.72-1.73-5.64-3.11-8.65-4.18-1.85-.65-3.73-1.17-5.64-1.55l1.42,2.68,1.37,3.12c.4,1.05.8,2.11,1.18,3.17,1.46,4.26,2.49,8.59,3.48,12.88l.71,3.21.74,3.2c.27,1.05.52,2.12.77,3.18l.86,3.15c1.19,4.19,2.71,8.28,4.8,12.18-2.82-3.42-4.9-7.44-6.58-11.56l-1.18-3.12c-.36-1.05-.73-2.1-1.07-3.15l-.98-3.17-.94-3.17c-1.21-4.23-2.39-8.43-3.86-12.47-1.46-4.04-3.24-7.92-5.6-11.4l-2.14-3.15,3.75.45c3.45.42,6.83,1.31,10.02,2.61,3.2,1.29,6.2,3.02,8.95,5.05.68.53,1.35,1.05,2.01,1.59l1.89,1.72,1.79,1.82c.56.64,1.1,1.29,1.64,1.94,2.11,2.65,3.87,5.57,5.11,8.66Z"/>
    <path class="cls-8" d="M95.71,107.44c-.14.44-.3.89-.56,1.3-.24.42-.56.82-.97,1.14s-.92.58-1.47.67c-.55.1-1.11.07-1.63-.05-1.05-.23-1.97-.73-2.78-1.3-.19-.14-.37-.28-.55-.42-.11.84-.17,1.7-.15,2.55.04,1.52.25,3.05.65,4.57.19.76.41,1.52.67,2.29l.39,1.17c.07.21.14.39.2.69.08.27.07.53.08.79-.05,1.01-.4,1.85-.82,2.61-.43.75-.93,1.44-1.52,2.05.3-.79.55-1.57.73-2.36.19-.77.25-1.57.14-2.21-.05-.15-.07-.31-.14-.43-.04-.11-.15-.3-.25-.47l-.58-1.11c-.38-.76-.73-1.55-1.02-2.37-.59-1.63-.96-3.39-1.01-5.17-.06-1.78.21-3.58.79-5.26l.74-2.14,1.29,1.76c.22.3.51.64.78.95.28.31.58.61.88.9.61.57,1.26,1.06,1.96,1.37.69.3,1.43.41,2.17.1.74-.3,1.41-.93,2.01-1.64Z"/>
    <path class="cls-2" d="M157.76,72.64s15.62,1.3,20.36,5.15c0,0-2.96-3.27-7.13-4.52-3.38-1.05-10.68-2.71-11.53-2.46s-1.7,1.82-1.7,1.82Z"/>
    <path class="cls-2" d="M142.3,103.12s-.05,2.6.26,3.64c0,0,3.94-12.66,11.86-15.01,5.19-1.45,8.44-.62,8.44-.62,0,0-.5-.57-1.99-1.12s-10.81-1.44-14.06,2.84c-3.25,4.29-4.52,10.26-4.52,10.26Z"/>
    <path class="cls-8" d="M160.88,90.01l-1.17.08c-1.73.11-3.75.3-5.64.8-1.77.48-3.38,1.24-4.81,2.28-1.36,1.02-2.61,2.33-3.71,3.89-1.02,1.45-1.93,3.08-2.77,4.99l-.48,1.07v-1.17c-.02-1.93.48-3.93,1.46-5.94.97-1.95,2.36-3.63,4.01-4.85,1.71-1.25,3.81-2.07,5.92-2.3,2.1-.21,4.21.05,6.09.75l1.1.41Z"/>
    <path class="cls-2" d="M165.9,86.91s0,.06-.02.17c-.03.32-.08,1,.02,1.47,0,0,4.09-6.27,7.68-7.48s8.17-.38,9.59.67-.31-1.27-.31-1.27l-5.06-1.57-3.7-.22-5.54,3.01"/>
    <path class="cls-5" d="M194.44,147.19s-.72-1.66,2.32-3.67,11.8-4.83,11.53-1.33c-.27,3.5-.38,3.86-.38,3.86,0,0,2.21-3.91,1.73-6.22s.19-2.4-2.34-2.19-11.28,2.61-12.5,4.74-2.57,3.16-.37,4.81Z"/>
    <ellipse class="cls-8" cx="193.03" cy="156.03" rx="1.78" ry="1.39" transform="translate(-26.46 40.14) rotate(-11.12)"/>
    <ellipse class="cls-8" cx="198.81" cy="163.04" rx="1.78" ry="1.57" transform="translate(-47.97 90.89) rotate(-23.06)"/>
    <ellipse class="cls-8" cx="200.87" cy="156.24" rx="1.02" ry=".91" transform="translate(-52.97 138.25) rotate(-33.82)"/>
    <circle class="cls-8" cx="212.57" cy="150.28" r="1.01"/>
    <ellipse class="cls-8" cx="214.25" cy="145.13" rx="1.78" ry="1.23" transform="translate(-39.87 194.01) rotate(-45)"/>
    <path class="cls-2" d="M157.31,100.65c-1.91,2.46-4.62,6.69-5.66,12.48-2.74,15.18,8.59,26.2,9.56,27.11,5.32,5,10.51,6.08,12.13,6.35,2.23.37,6.96,1.17,8.97-1.53,1.16-1.56.93-3.63.7-4.72-8.57-13.23-17.14-26.46-25.71-39.7Z"/>
    <path class="cls-2" d="M175.79,94.81s-9.29,16.47,5.84,33.87c10,11.15,21.77,5.22,22.36,4.72s.75-4.72.75-4.72l-28.95-33.87Z"/>
    <ellipse class="cls-5" cx="193.32" cy="109.42" rx="17.59" ry="25.29" transform="translate(-27.12 82.05) rotate(-22.43)"/>
    <g>
      <path class="cls-8" d="M209.88,102.58c-2.12-5.29-5.43-10.2-9.99-13.78-2.27-1.78-4.88-3.21-7.74-3.94-2.05-.54-4.26-.65-6.38-.25-.81.15-1.6.37-2.37.68-.02,0-.03.01-.05.02-2.8,1.12-5.17,3.23-6.75,5.76-1.18,1.87-2,3.93-2.52,6.04-.06.21-.1.43-.15.64h0c-.05.22-.09.44-.13.65-.07.33-.12.65-.17.98-.05.29-.08.58-.11.87-.09.71-.14,1.42-.17,2.13-.03.5-.04.99-.03,1.49,0,.62.03,1.25.07,1.87.07,1.06.19,2.13.36,3.18.1.63.22,1.26.36,1.89.27,1.25.61,2.49,1.01,3.71.23.71.49,1.4.76,2.1.57,1.32,1.21,2.62,1.94,3.88.57.99,1.18,1.97,1.85,2.9.38.54.78,1.06,1.18,1.57.77.97,1.6,1.9,2.48,2.76.45.45.9.87,1.38,1.28.56.49,1.13.95,1.73,1.4.1.07.2.15.3.22.56.4,1.14.79,1.74,1.14.6.36,1.22.7,1.86,1,.18.09.37.18.55.26.19.09.37.16.56.24.96.39,1.95.71,2.96.94,2.9.69,6.07.51,8.85-.68.31-.13.6-.28.9-.43.96-.5,1.85-1.12,2.66-1.83,1.19-1.04,2.21-2.28,2.99-3.62,1.51-2.53,2.35-5.39,2.71-8.25.7-5.76-.42-11.57-2.64-16.82ZM211.4,119.24c-.42,2.73-1.29,5.4-2.75,7.69-1.43,2.3-3.53,4.14-6,5.13-2.47.97-5.23,1.06-7.81.37-1.04-.27-2.05-.64-3.02-1.1-.19-.08-.37-.17-.54-.26-.18-.09-.36-.18-.53-.28-.58-.31-1.14-.65-1.69-1.02-.47-.32-.92-.65-1.36-.99-.08-.07-.17-.13-.25-.2-.67-.54-1.3-1.11-1.92-1.71-.47-.45-.92-.93-1.35-1.41-.68-.76-1.32-1.56-1.92-2.39-.42-.57-.81-1.16-1.18-1.76-.48-.77-.93-1.55-1.35-2.36-.56-1.07-1.07-2.17-1.51-3.29-.2-.47-.4-.95-.58-1.43-.36-.94-.67-1.9-.94-2.87-.2-.69-.37-1.38-.52-2.08-.19-.86-.34-1.73-.44-2.6-.09-.65-.15-1.29-.19-1.95-.04-.52-.06-1.05-.06-1.57-.01-.69.01-1.38.06-2.07.03-.48.08-.95.13-1.42.02-.13.03-.25.05-.37.03-.22.06-.43.1-.65h0c.04-.22.08-.43.12-.64.42-2.11,1.13-4.15,2.22-5.97,1.34-2.31,3.36-4.19,5.8-5.25,2.44-1.04,5.23-1.22,7.86-.6,2.65.6,5.15,1.87,7.37,3.51,4.45,3.31,7.83,8,10.05,13.14,2.06,5.2,2.96,10.91,2.15,16.4Z"/>
      <path class="cls-8" d="M198.8,91.34c-1.74-1.38-3.72-2.55-5.97-3.17-1.12-.3-2.3-.5-3.52-.46-1.21.03-2.44.28-3.59.74-1.15.47-2.22,1.16-3.14,2-.92.84-1.69,1.83-2.3,2.89-1.21,2.13-1.87,4.48-2.12,6.81-.47,4.7.53,9.36,2.43,13.54,1.93,4.16,4.81,7.97,8.68,10.67,1.93,1.34,4.14,2.37,6.55,2.84,1.2.23,2.45.29,3.69.14,1.24-.15,2.46-.52,3.57-1.08,1.1-.57,2.09-1.35,2.9-2.24.82-.89,1.44-1.92,1.94-2.96,1-2.11,1.4-4.37,1.49-6.59.15-4.45-.94-8.79-2.74-12.74-1.83-3.94-4.4-7.6-7.88-10.39ZM207.81,114.35c-.22,2.04-.81,4.02-1.8,5.7-.98,1.69-2.44,2.99-4.11,3.63-1.68.64-3.53.62-5.28.09-1.76-.5-3.43-1.48-4.92-2.68-2.99-2.42-5.34-5.71-6.99-9.29-1.64-3.58-2.6-7.5-2.49-11.35.06-1.91.4-3.81,1.17-5.48.75-1.67,1.93-3.09,3.51-3.94,1.58-.85,3.51-1.11,5.43-.75,1.92.35,3.81,1.19,5.5,2.35,3.39,2.34,6.04,5.78,7.79,9.57,1.73,3.8,2.62,8.05,2.18,12.15Z"/>
      <path class="cls-8" d="M198.32,94.88c-1.16-1.04-2.46-1.98-4.01-2.56-1.52-.59-3.39-.76-5.09-.07-1.69.72-2.96,2.2-3.63,3.76-.68,1.58-.97,3.23-1.01,4.86-.09,3.26.73,6.41,2.03,9.31,1.35,2.87,3.21,5.54,5.74,7.6,1.26,1.02,2.71,1.89,4.35,2.4,1.63.5,3.57.5,5.22-.31,1.63-.85,2.72-2.37,3.27-3.91.56-1.55.7-3.15.66-4.71-.08-3.13-.98-6.11-2.21-8.89-1.31-2.75-2.98-5.38-5.3-7.47ZM203.56,115.29c-.55,1.23-1.47,2.17-2.54,2.62-1.1.4-2.34.31-3.52-.16-1.19-.47-2.29-1.25-3.29-2.16-2.02-1.83-3.55-4.23-4.75-6.74-1.13-2.54-1.95-5.27-2.02-7.99-.04-1.35.09-2.7.51-3.91.42-1.2,1.15-2.19,2.17-2.77,1.04-.52,2.35-.6,3.64-.22,1.28.39,2.53,1.1,3.63,1.99,2.23,1.79,3.95,4.24,5.18,6.87,1.19,2.65,1.93,5.55,1.83,8.41-.04,1.42-.31,2.83-.86,4.05Z"/>
      <path class="cls-8" d="M201.15,103.23c-.72-1.52-1.6-2.98-2.83-4.22-.62-.61-1.3-1.19-2.17-1.6-.21-.11-.45-.18-.68-.27-.25-.06-.49-.13-.76-.15-.53-.07-1.1.02-1.64.21-1.08.45-1.83,1.44-2.16,2.37-.36.94-.48,1.89-.48,2.82,0,1.85.48,3.6,1.2,5.21.75,1.61,1.77,3.1,3.17,4.31.7.6,1.5,1.12,2.45,1.47.92.35,2.15.43,3.2-.1.5-.28.94-.66,1.23-1.11.16-.21.26-.45.38-.67.08-.23.19-.46.24-.69.26-.92.26-1.82.2-2.69-.14-1.74-.68-3.36-1.36-4.89ZM200.76,110.29c-.25.64-.69,1.05-1.12,1.2-.88.29-2.14-.45-3.08-1.46-.98-1-1.75-2.28-2.38-3.6-.59-1.33-1.06-2.75-1.18-4.15-.15-1.37.11-2.81.9-3.29.4-.23,1-.29,1.64-.06.64.21,1.28.6,1.85,1.09.57.49,1.1,1.05,1.55,1.68.45.63.84,1.31,1.17,2.01.31.71.58,1.45.76,2.2.18.75.26,1.52.27,2.27,0,.75-.13,1.49-.38,2.11Z"/>
      <path class="cls-8" d="M195.73,101.96c-1.06.49-1.25,2.36-.41,4.18.84,1.82,2.37,2.9,3.44,2.41,1.06-.49,1.25-2.36.41-4.18-.84-1.82-2.37-2.9-3.44-2.41Z"/>
    </g>
    <ellipse class="cls-5" cx="172.69" cy="120.81" rx="17.59" ry="25.29" transform="translate(-33.03 75.04) rotate(-22.43)"/>
    <g>
      <path class="cls-8" d="M186.75,113.61c1.8,3.96,2.89,8.29,2.74,12.74-.09,2.22-.49,4.48-1.49,6.59-.5,1.05-1.12,2.07-1.94,2.96-.81.89-1.8,1.67-2.9,2.24-1.11.57-2.33.93-3.57,1.08-1.24.15-2.49.08-3.69-.14-2.41-.47-4.61-1.5-6.55-2.84-3.87-2.7-6.75-6.5-8.68-10.67-1.9-4.18-2.91-8.84-2.43-13.54.25-2.34.9-4.69,2.12-6.81.61-1.06,1.37-2.05,2.3-2.89.92-.84,1.99-1.53,3.14-2,1.15-.46,2.38-.7,3.59-.74,1.21-.04,2.39.15,3.52.46,2.25.62,4.23,1.79,5.97,3.17,3.47,2.79,6.05,6.44,7.88,10.39ZM185.71,114.09c-1.75-3.79-4.4-7.23-7.79-9.57-1.69-1.16-3.58-2-5.5-2.35-1.92-.35-3.85-.1-5.43.75-1.58.86-2.77,2.27-3.51,3.94-.77,1.67-1.11,3.57-1.17,5.48-.11,3.85.86,7.77,2.49,11.35,1.65,3.57,3.99,6.86,6.99,9.29,1.49,1.2,3.16,2.18,4.92,2.68,1.76.53,3.6.55,5.28-.09,1.67-.65,3.13-1.94,4.11-3.63.99-1.68,1.58-3.67,1.8-5.7.44-4.1-.45-8.35-2.18-12.15Z"/>
      <path class="cls-8" d="M183.7,114.23c1.23,2.78,2.14,5.76,2.21,8.89.03,1.56-.11,3.16-.66,4.71-.54,1.54-1.63,3.06-3.27,3.91-1.65.81-3.59.81-5.22.31-1.64-.51-3.08-1.37-4.35-2.4-2.53-2.06-4.39-4.74-5.74-7.6-1.3-2.89-2.12-6.04-2.03-9.31.05-1.63.33-3.28,1.01-4.86.68-1.56,1.95-3.04,3.63-3.76,1.71-.68,3.58-.52,5.09.07,1.54.59,2.85,1.53,4.01,2.56,2.32,2.09,3.99,4.72,5.3,7.47ZM182.66,114.71c-1.23-2.63-2.95-5.08-5.18-6.87-1.1-.89-2.35-1.61-3.63-1.99-1.29-.38-2.6-.3-3.64.22-1.02.58-1.76,1.57-2.17,2.77-.42,1.2-.54,2.56-.51,3.91.07,2.72.89,5.45,2.02,7.99,1.19,2.51,2.73,4.91,4.75,6.74,1,.91,2.11,1.7,3.29,2.16,1.18.47,2.42.56,3.52.16,1.08-.45,1.99-1.39,2.54-2.62.54-1.23.82-2.63.86-4.05.09-2.86-.64-5.76-1.83-8.41Z"/>
      <path class="cls-8" d="M181.23,115.11c.68,1.53,1.22,3.15,1.36,4.89.06.87.06,1.77-.2,2.69-.05.23-.16.46-.24.69-.12.22-.22.46-.38.67-.29.45-.73.82-1.23,1.11-1.05.53-2.28.45-3.2.1-.95-.35-1.75-.87-2.45-1.47-1.4-1.21-2.42-2.71-3.17-4.31-.73-1.62-1.2-3.37-1.2-5.21,0-.92.13-1.87.48-2.82.34-.93,1.08-1.91,2.16-2.37.54-.19,1.12-.28,1.64-.21.27.02.51.09.76.15.23.09.47.16.68.27.86.41,1.55.99,2.17,1.6,1.23,1.24,2.11,2.7,2.83,4.22ZM180.19,115.59c-.34-.7-.72-1.38-1.17-2.01-.45-.63-.98-1.19-1.55-1.68-.57-.49-1.21-.87-1.85-1.09-.64-.23-1.24-.16-1.64.06-.79.48-1.05,1.92-.9,3.29.12,1.4.59,2.81,1.18,4.15.62,1.32,1.39,2.6,2.38,3.6.95,1.01,2.21,1.75,3.08,1.46.43-.15.87-.57,1.12-1.2.25-.62.38-1.36.38-2.11,0-.75-.08-1.52-.27-2.27-.18-.75-.45-1.49-.76-2.2Z"/>
      <ellipse class="cls-8" cx="177.32" cy="117.14" rx="2.12" ry="3.63" transform="translate(-32.71 84.69) rotate(-24.67)"/>
    </g>
    <path class="cls-2" d="M113.64,165.77s-7.54,1.85-8.88,2.34c4.07.55,6.64,1.89,8.28,3.08.81.59,1.65,1.33,4.86,3.84,1.12.88,2.06,1.6,2.69,2.09-1.08-.04-2.37,0-3.8.24-2.65.44-4.73,1.37-6.13,2.15,0,0,9.02,1.35,10.7,6.83,0,0-6.81-5.47-12.12-5.34-5.31.13-3.5-.19-3.5-.19,0,0,5.7-5.83,9-5.83,0,0-12.48-6.17-15.99-6.28,0,0,8.69-4.36,14.9-2.93Z"/>
    <path class="cls-8" d="M121.34,186.34c-.59-.41-1.11-.87-1.73-1.21-.3-.18-.59-.38-.9-.54l-.93-.46c-1.25-.59-2.55-1.05-3.88-1.39-1.33-.35-2.68-.58-4.04-.74-1.35-.15-2.76-.23-4.05-.17l-1.79.08.84-1.61c.45-.86.95-1.7,1.6-2.44.63-.76,1.38-1.41,2.18-1.97.8-.56,1.67-1.02,2.58-1.37.02,0,.05-.02.07-.02-.43-.26-.86-.51-1.3-.75-1.23-.65-2.52-1.21-3.84-1.75-1.32-.51-2.66-.98-4.03-1.4-1.36-.43-2.76-.81-4.11-1.13l-3.15-.76,2.9-1.13c.64-.25,1.26-.52,1.91-.75.65-.21,1.28-.46,1.95-.63,1.31-.38,2.65-.62,3.99-.83,1.35-.16,2.7-.24,4.05-.19,1.34.06,2.69.2,3.97.57-1.33-.08-2.65,0-3.95.16-1.3.16-2.58.39-3.84.72-1.25.33-2.5.69-3.69,1.18-.25.09-.48.19-.72.29.44.1.88.21,1.32.32,1.43.39,2.86.8,4.27,1.32,2.8,1.03,5.57,2.34,8.01,4.33l2.29,1.88-2.99.32c-.13.02-.34.05-.53.08-.19.04-.38.08-.57.13-.39.09-.77.21-1.14.34-.75.27-1.46.63-2.13,1.05-.34.2-.65.45-.96.69-.29.27-.6.52-.86.82-.17.16-.32.34-.47.52.83.09,1.64.22,2.46.38,1.43.28,2.82.7,4.18,1.21,1.36.51,2.64,1.21,3.85,1.99,1.2.8,2.27,1.8,3.17,2.87Z"/>
    <path class="cls-2" d="M132.87,126.45c-.83-.34-1.96-.76-3.35-1.13-3.13-.83-3.91-.44-4.15-.3-.71.41-1.36,1.27-1.43,2.22-.13,1.81,1.91,2.54,4.18,5.63.48.65,1.74,2.46,2.52,4.78.51,1.53,1.05,3.99.6,7.23,0,0-1.58-7.62-6.83-12.02s-4.18-9.36-.58-10.15c1.06-.23,2.16-.3,3.47.03,3.01.77,4.84,2.78,5.57,3.7Z"/>
    <path class="cls-8" d="M128.67,136.24c1.56,2.65,2.49,5.66,2.57,8.65-.58-1.38-1.16-2.72-1.87-3.98-.7-1.26-1.48-2.45-2.35-3.58-.86-1.12-1.81-2.18-2.8-3.23-.99-1.06-2.04-2.08-3.02-3.38-.48-.66-.95-1.4-1.22-2.34-.27-.92-.24-2.01.09-2.88.32-.89.77-1.59,1.36-2.26.58-.66,1.36-1.24,2.25-1.52.88-.29,1.81-.31,2.63-.13.83.17,1.58.48,2.26.87,1.35.79,2.51,1.79,3.44,2.97-1.28-.76-2.59-1.44-3.93-1.86-1.32-.42-2.7-.53-3.69-.03-.5.24-.91.62-1.26,1.09-.34.48-.66,1.06-.79,1.57-.14.53-.13.98.03,1.46.15.49.46,1.01.86,1.54.39.53.86,1.07,1.34,1.61.47.55.97,1.1,1.45,1.68.96,1.16,1.89,2.38,2.66,3.72Z"/>
    <path class="cls-2" d="M249.11,174.57c-1.88-2.07-6.68-6.72-14.18-8.04-6.73-1.19-12.54.04-15.94,2.49-3.83,2.76-12.58,8.17-12.58,8.17,2.2-1.08,5.46-2.62,9.48-4.29,4.89-2.03,7.39-3.06,10.09-3.56,5.86-1.07,10.61-.12,12.35.29,4.99,1.17,8.63,3.39,10.77,4.94Z"/>
    <path class="cls-2" d="M230.75,165.4c3.42-.68,9.77-1.47,17.3.49,2.41.62,8.57,2.47,14.82,7.53,4.73,3.82,7.61,7.95,9.25,10.71-.74-2.73-2.67-8.38-7.8-13.42-6.32-6.21-13.57-7.61-15.79-8.05-2.02-.39-4-.53-6-.49-6.73.13-15.81,3.74-15.81,3.74l4.03-.5Z"/>
    <path class="cls-8" d="M272.89,181.41c-.72-3.04-2.43-5.62-4.36-7.8-.97-1.1-2.03-2.11-3.11-3.05-1.07-.94-2.18-1.85-3.33-2.71-2.3-1.72-4.77-3.26-7.44-4.44-2.67-1.18-5.53-1.97-8.44-2.28-2.91-.33-5.84-.16-8.69.32-2.85.48-5.61,1.27-8.29,2.24-3.97,1.43-7.77,3.21-11.47,5.14-1.57.68-3.11,1.43-4.6,2.27-1.21.69-2.38,1.44-3.53,2.23-3.45,2.01-6.86,4.09-10.24,6.2l-3.56,2.25c-1.18.76-2.34,1.44-3.58,2.06-1.61.8-3.28,1.46-5,2.01-.07-.76-.11-1.51-.13-2.28-.06-2.68.15-5.41.65-8.02,2.16-.16,4.31-.46,6.42-.99,2.87-.72,5.7-1.84,8.15-3.61,2.45-1.76,4.47-4.17,5.68-6.94.61-1.38,1.05-2.83,1.3-4.31.18-1.05.27-2.1.27-3.16.88.46,1.83.83,2.84,1.05.73.17,1.49.22,2.22.21.37,0,.73-.04,1.1-.06.36-.06.73-.08,1.09-.16,2.89-.55,5.54-2.1,7.49-4.32.98-1.12,1.71-2.46,2.2-3.85.23-.67.4-1.35.52-2.04.63.07,1.26.14,1.89.23,1.73.24,3.45.53,5.14.93,1.68.41,3.35.88,4.87,1.6h.02c.35.17.77.03.94-.32.18-.35.04-.78-.32-.96-1.65-.84-3.39-1.37-5.13-1.85-1.74-.47-3.5-.81-5.26-1.1-.65-.11-1.3-.2-1.96-.3.01-.17.03-.34.03-.51.03-1.45-.12-2.9-.45-4.31-.2-.86-.46-1.7-.77-2.52,1.03-.35,2.06-.69,3.09-.99,1.67-.5,3.36-.95,5.06-1.28,1.7-.33,3.42-.59,5.1-.57h.02c.39,0,.71-.3.73-.69.02-.4-.3-.73-.69-.75-1.86-.07-3.66.16-5.43.45-1.78.3-3.52.72-5.24,1.18-1.13.3-2.25.64-3.36.98-1.18-2.34-2.87-4.5-5.18-5.94,1.03-.98,2.09-1.96,3.16-2.88,1.32-1.14,2.68-2.25,4.09-3.24,1.41-.99,2.87-1.94,4.42-2.6h.01c.36-.16.53-.57.38-.93-.15-.37-.57-.54-.93-.4-1.73.69-3.27,1.64-4.77,2.63-1.5,1-2.91,2.1-4.3,3.22-1.31,1.07-2.58,2.18-3.83,3.32-.98-.37-2.02-.58-3.04-.64-.73-.05-1.46-.03-2.17.04-.34.03-.72.08-1.07.12-.36.07-.72.12-1.07.21-1.41.34-2.75.91-3.98,1.62-.08.05-.16.09-.23.14-.94.56-1.81,1.18-2.66,1.83-.19.15-.38.29-.56.43-1.08.87-2.15,1.72-3.18,2.65-1.02.93-2,1.9-2.89,2.94-.5,0-.99.06-1.48.14-.75.11-1.49.26-2.24.42-1.48.34-2.94.77-4.38,1.31-.93.34-1.84.74-2.72,1.2.97-.94,1.8-2.01,2.48-3.15,1.07-1.81,1.81-3.77,2.27-5.78.08-.32.14-.63.2-.95.07-.33.12-.66.17-.99.03-.18.05-.36.08-.54.2-1.6.25-3.21.17-4.81h0c-.08-1.72-.3-3.42-.65-5.1h0c-.4-1.95-.97-3.85-1.68-5.69-.16-.41-.32-.81-.49-1.21-1.03-2.56-2.34-5.04-3.93-7.32,0,0,0,0,0,0-.92-1.31-1.92-2.55-3.03-3.71-.94-.98-1.95-1.91-3.02-2.76-.33-.26-.67-.51-1.02-.75-.73-.52-1.5-1-2.3-1.43-.3-.17-.61-.32-.93-.48-.31-.15-.62-.28-.93-.42-.83-.35-1.69-.64-2.57-.86-2.84-.75-5.99-.66-8.8.45-2.8,1.12-5.17,3.23-6.75,5.76-1.59,2.53-2.53,5.41-2.97,8.31-.86,5.84.11,11.8,2.25,17.23,2.31,5.36,5.83,10.27,10.56,13.8,2.36,1.75,5.05,3.13,7.97,3.8,2.77.66,5.79.53,8.47-.53-.25.2-.49.4-.73.6-2.33,2.01-4.35,4.39-5.92,7.01-.59.97-1.12,1.97-1.59,2.99-.87-.17-1.74-.33-2.62-.47-1.76-.28-3.54-.52-5.34-.63-1.8-.11-3.61-.15-5.45.12-.38.06-.65.41-.61.79.05.4.4.68.8.63h.01c1.67-.2,3.41-.12,5.13.04,1.73.16,3.45.43,5.17.75.74.14,1.48.3,2.22.46-.46,1.21-.83,2.46-1.1,3.73.6-1.22,1.24-2.4,1.92-3.55.7.16,1.39.32,2.09.49,1.7.43,3.4.89,5.05,1.4h.02s.02.01.02.01c.54.15,1.09-.17,1.24-.7.15-.53-.17-1.09-.7-1.23-1.74-.49-3.46-.9-5.2-1.29-.5-.11-1-.21-1.5-.31.53-.82,1.08-1.63,1.67-2.41.9-1.16,1.8-2.3,2.82-3.34.49-.53,1.02-1.03,1.53-1.54.54-.48,1.07-.98,1.64-1.42,2.24-1.83,4.63-3.48,7.23-4.82,1.29-.68,2.64-1.27,4.03-1.77.69-.25,1.39-.48,2.11-.68.09-.03.18-.05.26-.07-3.03,1.93-5.08,4.43-4.34,7.02,1.12,3.93,5.9,4.74,9.69,4.74,2.56,0,4.67-.38,4.88-.42l.4-.07.24-.33c.59-.82,5.7-8.09,3.98-12.55-1.03-2.66-5.6-2.21-9.52-.89-.98.33-1.95.72-2.89,1.16.68-.59,1.36-1.16,2.07-1.71,1.07-.83,2.19-1.63,3.29-2.42,2.22-1.55,4.56-2.94,7.11-3.44,1.88-.35,3.89-.41,5.68.1-.92.86-1.82,1.74-2.71,2.65,0,0-.01.02-.02.02-.38.41-.35,1.04.06,1.42s1.04.35,1.41-.06h.01c1.01-1.1,2.07-2.17,3.14-3.22,2.03,1.18,3.6,3.14,4.69,5.3-.02,0-.03.01-.05.02-1.7.57-3.36,1.16-5.04,1.82,0,0-.02,0-.03.01-.51.22-.75.81-.53,1.31.22.51.81.75,1.32.53h.01c1.59-.68,3.24-1.32,4.88-1.92.06-.02.13-.04.19-.07.75,1.98,1.15,4.1,1.1,6.19,0,.11-.01.22-.02.32-.52-.07-1.03-.13-1.54-.19-1.78-.19-3.54-.35-5.34-.44h-.03c-.56-.02-1.01.43-1.03.98-.02.56.42,1.01.98,1.03h.01c1.73.05,3.49.15,5.23.29.5.04,1,.09,1.5.14-.11.56-.24,1.1-.42,1.63-.43,1.19-1.04,2.31-1.87,3.25-.82.96-1.81,1.81-2.9,2.46-1.09.67-2.29,1.17-3.54,1.45-.31.09-.63.11-.94.18-.32.03-.64.07-.96.08-.65.03-1.26,0-1.88-.12-1.23-.25-2.42-.8-3.55-1.48l-1.26-.76.16,1.47c.07.63.06,1.35.02,2.03-.05.69-.12,1.38-.25,2.06-.25,1.36-.66,2.69-1.23,3.95-1.13,2.51-2.96,4.67-5.22,6.25-2.25,1.6-4.89,2.62-7.62,3.27-2.73.66-5.57.91-8.39.93-.36.03-.7-.02-1.05-.02-.35-.02-.69-.02-1.04-.06-.69-.08-1.38-.13-2.07-.27-.12-.02-.24-.05-.36-.07,1.28-.88,2.59-1.74,3.89-2.54h.02s.02-.02.02-.02c.47-.31.6-.93.29-1.39-.3-.47-.92-.6-1.38-.29-1.51.98-2.96,2-4.4,3.05-.28.21-.55.42-.83.63-.43-.13-.86-.26-1.28-.4-1.32-.44-2.6-1.02-3.85-1.64-1.24-.65-2.43-1.38-3.59-2.17-.13-.09-.25-.19-.37-.28.47-.12.94-.24,1.41-.35,1.7-.41,3.41-.76,5.14-1.07,1.72-.31,3.46-.58,5.18-.8h.02s.02,0,.02,0c.55-.08.93-.59.84-1.14-.08-.55-.59-.93-1.14-.84-1.79.27-3.53.59-5.28.95-1.74.36-3.48.76-5.21,1.23-.89.24-1.77.49-2.65.77-3.73-2.98-6.95-6.63-9.58-10.61-.2-.29-.38-.59-.56-.88l-.25-.42-.26-.48-1.04-1.93-1.14-1.9c-.38-.63-.8-1.23-1.19-1.85-1.64-2.43-3.41-4.77-5.26-7.03-1.86-2.25-3.8-4.42-5.81-6.53-1.01-1.05-2.03-2.1-3.07-3.11-.53-.51-1.05-1.01-1.6-1.51-.63-.57-1.4-1.09-2.32-1.38-.91-.29-2.04-.32-3.05.22-.26.11-.48.32-.7.49-.2.21-.41.42-.55.67-.14.25-.29.5-.36.77l-.12.4c-.03.14-.04.27-.05.4-.1,1.06.23,2,.6,2.77.19.34.38.7.56,1.01l.56.94c1.5,2.48,3,4.93,4.44,7.42,2.9,4.95,5.62,10.02,8.07,15.2,2.45,5.18,4.63,10.48,6.29,15.93.38,1.37.77,2.73,1.13,4.12.35,1.41.71,2.81,1.08,4.21.75,2.8,1.54,5.59,2.41,8.37,1.72,5.55,3.73,11.04,6.35,16.29,1.32,2.61,2.82,5.17,4.61,7.54.9,1.18,1.9,2.31,2.99,3.36,1.09,1.04,2.32,1.97,3.67,2.73,1.34.75,2.82,1.33,4.38,1.58,1.58.23,3.03.21,4.54.13,2.98-.19,5.97-.82,8.72-2.12,1.37-.65,2.68-1.47,3.84-2.52,1.14-1.05,2.13-2.33,2.75-3.8.19-.45.34-.91.45-1.39.3.71.52,1.43.63,2.18.12.78.11,1.56.02,2.34-.11.78-.33,1.54-.62,2.28-.59,1.49-1.52,2.85-2.61,4.07-1.1,1.22-2.37,2.31-3.73,3.25-2.73,1.88-5.85,3.24-9.05,3.93-3.19.67-6.5.61-9.63-.17-.78-.2-1.58-.34-2.34-.63-.75-.29-1.49-.62-2.19-1-1.41-.76-2.69-1.75-3.86-2.88-2.34-2.28-4.23-5.13-6.11-8.01l-5.65-8.75c-1.9-2.9-3.77-5.84-5.83-8.75.8,3.48,2.07,6.8,3.58,10.01.76,1.6,1.61,3.16,2.46,4.68.85,1.54,1.74,3.06,2.67,4.57.94,1.5,1.94,3.01,3.04,4.45h0c0,.07-2.47.68-4.86.72l-.96-.02c-.57-.04-1.12-.11-1.6-.25-2.72-.78-4.4.15-4.4.15-.52.21-.61.31-.43.36.02,0,.03,0,.04,0,.05,0,.1,0,.15.02.07,0,.14,0,.2.01.01,0,.02,0,.04,0h.19s.49-.02.49-.02h.08c.08-.01.15-.01.23-.02.36-.02.76-.04,1.14-.04,1.7-.02,4.14,1.21,6.71,1.86,2.57.64,4.44-.55,4.44-.55l.2-.2c.63.72,1.28,1.42,1.99,2.09,1.35,1.28,2.89,2.42,4.55,3.33.83.47,1.7.84,2.56,1.21.87.35,1.75.72,2.67.94,3.67.92,7.55.83,11.16-.12,3.6-.95,6.94-2.61,9.87-4.83,1.46-1.12,2.81-2.39,3.99-3.83,1.16-1.44,2.17-3.06,2.79-4.86.31-.9.53-1.84.62-2.8.08-.96.04-1.94-.15-2.88-.36-1.78-1.18-3.38-2.2-4.76-.01-.12-.02-.25-.03-.37-.15-1.56-.62-3.05-1.27-4.43-.55-1.2-1.26-2.31-2.03-3.36,2-.69,3.93-1.57,5.78-2.58l3.65-2.1c1.22-.66,2.43-1.32,3.68-1.92,2.48-1.22,5.03-2.31,7.63-3.21,2.6-.9,5.26-1.6,7.95-2.04,1.35-.23,2.7-.37,4.06-.47,1.35-.07,2.72-.1,4.07-.01,2.71.15,5.39.64,7.98,1.45,2.59.81,5.08,1.94,7.48,3.27.6.34,1.2.68,1.79,1.03l.45.27c.15.09.29.17.48.28.36.21.72.38,1.09.53,1.5.59,3.05.78,4.57.78,3.03-.04,5.95-.86,8.61-2.18,2.64-1.33,5.1-3.23,6.79-5.84.85-1.29,1.45-2.77,1.74-4.32.28-1.55.22-3.16-.14-4.67ZM182.03,143.44c-2.47.97-5.23,1.06-7.81.37-2.59-.66-5.02-1.98-7.15-3.66-4.28-3.37-7.46-8.05-9.48-13.12-2.14-5.02-3.19-10.58-2.54-15.98.33-2.69,1.12-5.34,2.49-7.63,1.34-2.31,3.36-4.19,5.8-5.25,2.44-1.04,5.23-1.22,7.86-.6.89.2,1.76.48,2.61.82.32.13.64.27.95.42.33.15.65.31.97.48.82.43,1.61.92,2.37,1.46.16.11.32.23.47.34,1.41,1.05,2.72,2.24,3.92,3.55,1.65,1.79,3.08,3.79,4.29,5.92,0,0,0,0,0,0,.34.58.65,1.17.95,1.76h0c.32.63.61,1.27.89,1.91.73,1.84,1.31,3.75,1.73,5.68.4,1.83.64,3.69.7,5.55.06,1.73-.03,3.46-.28,5.17-.01.05-.02.1-.03.15-.05.34-.12.68-.18,1.02-.07.32-.14.64-.22.96-.49,1.97-1.25,3.87-2.32,5.56-1.43,2.3-3.53,4.14-6,5.13ZM202.41,139.26c2.04-.69,3.71-.95,4.91-.95s1.96.27,2.11.66c1.07,2.77-1.97,8.09-3.5,10.32-1.97.29-10.67,1.29-11.89-2.97-.69-2.43,3.71-5.5,8.37-7.06ZM153.62,175.04c-1.69-5.6-3.9-11.01-6.36-16.27-2.48-5.27-5.21-10.4-8.13-15.41-1.44-2.51-2.95-5-4.43-7.46l-.54-.92c-.19-.31-.33-.59-.49-.89-.26-.52-.38-1-.34-1.39.05-.38.19-.62.47-.76.28-.14.7-.18,1.15-.04.46.15.93.43,1.37.83.52.47,1.03.96,1.54,1.45,1.03.99,2.03,2.01,3.02,3.03,1.98,2.07,3.89,4.19,5.72,6.38,1.82,2.2,3.55,4.46,5.15,6.81.39.59.81,1.17,1.18,1.78l1.12,1.81,1.04,1.87.26.47.31.52c.2.32.41.63.61.93,1.66,2.46,3.53,4.74,5.59,6.87,1.12,1.16,2.31,2.25,3.55,3.28-.04.02-.08.03-.12.05-1.69.63-3.36,1.34-4.92,2.33-.33.21-.43.64-.23.98.2.34.64.45.98.25h.01c1.44-.87,3.06-1.5,4.69-2.07.35-.12.71-.24,1.07-.35.57.44,1.15.85,1.75,1.26,1.24.82,2.52,1.58,3.85,2.25,1.34.65,2.71,1.24,4.14,1.7t.01,0c-.51.4-1.01.8-1.51,1.21-1.38,1.14-2.73,2.32-4,3.59-1.27,1.28-2.5,2.61-3.51,4.17-.21.33-.13.76.19.98.33.23.77.14,1-.19h.01c.95-1.39,2.16-2.64,3.41-3.84,1.25-1.19,2.6-2.31,3.98-3.38.85-.67,1.72-1.31,2.59-1.95.72.18,1.45.32,2.19.42.74.14,1.48.18,2.23.25.37.04.75.03,1.12.05.37,0,.75.04,1.12,0,.36,0,.72-.02,1.08-.04-.52,2.64-.74,5.3-.73,7.97.01.89.06,1.78.13,2.66-.47.13-.93.27-1.4.38-5.36,1.27-11.01,1.43-16.43.37-2.7-.54-5.36-1.39-7.77-2.69-1.2-.65-2.34-1.42-3.35-2.33-.88-.79-1.63-1.71-2.21-2.73-.36-1.39-.76-2.8-1.14-4.2ZM195.72,207.23c.56,1.24.96,2.55,1.06,3.86.1,1.31-.09,2.62-.61,3.8-1.05,2.39-3.25,4.19-5.72,5.32-2.49,1.15-5.26,1.73-8.03,1.88-1.37.07-2.82.06-4.09-.15-1.3-.22-2.55-.72-3.72-1.38-1.16-.67-2.25-1.5-3.23-2.46-.98-.96-1.9-2.01-2.73-3.13-1.67-2.24-3.09-4.7-4.35-7.24-2.5-5.11-4.43-10.52-6.12-15.99-.07-.21-.13-.42-.19-.62,1.09,1.18,2.23,2.31,3.42,3.39,2.12,1.9,4.39,3.62,6.82,5.11,4.84,2.98,10.43,4.98,16.22,5.19,2.89.11,5.79-.24,8.58-.98.18-.05.36-.1.54-.15,0,0,0,0,0,0,.83,1.12,1.58,2.3,2.14,3.55ZM270.58,185.65c-.22,1.2-.68,2.37-1.36,3.43-1.36,2.12-3.47,3.82-5.81,5.01-2.35,1.18-4.96,1.92-7.55,1.96-1.28.02-2.56-.16-3.68-.59-.28-.11-.55-.24-.8-.38-.12-.06-.29-.16-.44-.25l-.46-.27c-.61-.36-1.23-.71-1.86-1.06-2.5-1.37-5.16-2.56-7.92-3.41-2.77-.85-5.65-1.36-8.54-1.5-5.8-.32-11.55.86-16.91,2.78-2.68.96-5.29,2.12-7.82,3.4-1.27.63-2.51,1.32-3.75,2.02l-3.62,2.14-1.12.61c-.19.1-.38.2-.57.29l-1.15.55-1.77.74c-.46.18-.9.34-1.34.48-.04.01-.07.03-.1.04-.58.19-1.15.36-1.7.5h0c-1.83.5-3.69.81-5.58.92-.32.03-.63.04-.94.04-.15.01-.29.01-.44.01-.14,0-.28,0-.41,0-.16,0-.32,0-.46,0-.38,0-.76-.02-1.13-.05-.14,0-.27-.02-.4-.03-.28-.02-.57-.05-.85-.08-4.22-.45-8.35-1.88-12.11-3.95-.27-.15-.53-.3-.8-.45-.09-.05-.17-.1-.26-.15-2.38-1.4-4.61-3.04-6.71-4.84-1.79-1.55-3.5-3.23-5.03-5.03-.49-1.68-.95-3.37-1.4-5.06-.16-.6-.31-1.2-.46-1.8.31.35.62.69.96,1,1.06.99,2.25,1.82,3.51,2.51,2.51,1.4,5.24,2.31,8.02,2.91.33.07.66.14.98.2.66.12,1.32.22,1.98.31.21.03.42.05.63.08.18.02.37.04.56.06.29.03.58.05.87.08.21.02.43.03.64.04.11.01.23.02.34.02.21.01.42.02.63.03.14,0,.28,0,.42.01.3.01.6.02.9.02h.06c.19,0,.37,0,.57,0,.2,0,.41,0,.61-.01.31-.01.61-.02.92-.04.1,0,.2-.01.3-.02.08,0,.15-.01.23-.02.64-.05,1.27-.1,1.91-.17,1.11-.13,2.23-.3,3.32-.51.36-.07.73-.15,1.1-.23.21-.05.41-.1.62-.15.22-.05.42-.1.62-.16.54-.14,1-.27,1.36-.38,1.88-.56,3.71-1.26,5.48-2.11,1.28-.62,2.55-1.34,3.74-2.08l3.59-2.19c4.79-2.89,9.61-5.73,14.54-8.35,2.67-1.41,5.37-2.77,8.1-4.01.99-.26,1.98-.48,2.97-.67,2.12-.38,4.25-.59,6.36-.57,2.11.03,4.22.2,6.19.71.97.24,1.97.64,2.92,1.06.96.42,1.88.93,2.78,1.48,1.8,1.13,3.46,2.51,5.02,4.05l.16-.13c-2.24-3.82-5.92-6.91-10.32-8.4-2.24-.7-4.54-.87-6.8-.77-.47.03-.94.07-1.4.12,4.95-1.61,10.13-2.58,15.19-1.96,5.36.61,10.32,3.09,14.66,6.37,1.09.82,2.15,1.7,3.18,2.6,1.03.9,2,1.84,2.88,2.84,1.76,2,3.21,4.27,3.78,6.72.29,1.21.34,2.46.13,3.67Z"/>
    <g>
      <path class="cls-5" d="M184.45,175.19s.65,7.44,2.53,5.31,2.87-6.44,2.87-6.44c0,0-2.82,1.52-5.4,1.14Z"/>
      <path class="cls-8" d="M189.59,173.81c-.35.19-.86-.05-1.25.14-.41.17-.81.36-1.23.5-.42.16-.84.29-1.28.4-.22.05-.44.11-.67.14-.11.03-.22.05-.38.06-.14.02-.27.05-.37.07-.02.02-.03.09-.02.09v.03s0,.06,0,.06v.11s.01.22.01.22l.02.44c.02.3.04.59.07.89.06.59.14,1.18.25,1.77.12.59.24,1.18.56,1.78.08.15.18.3.32.45.14.14.34.3.62.33.14.03.27,0,.4-.02.1-.04.24-.08.31-.14.18-.11.32-.25.43-.37.86-.94,1.46-2.02,1.98-3.12.52-1.11.99-2.21,1.26-3.43l.37-.47-1.4.05ZM186.66,180.15c-.15.2-.31.31-.33.29-.03.04-.23-.11-.36-.32-.28-.43-.49-.98-.66-1.52-.17-.55-.32-1.12-.44-1.69l-.18-.86-.08-.43-.04-.22-.02-.11v-.03c.11.04.2.09.28.13.07.05.19.07.32.1.24.06.49.09.73.11.49.04.99.03,1.49-.03.46-.07.92-.15,1.36-.28-.16.63-.34,1.26-.55,1.87-.38,1.07-.85,2.12-1.51,2.98Z"/>
    </g>
    <g>
      <path class="cls-5" d="M182.3,219.51s-.65-7.44-2.53-5.31-2.87,6.44-2.87,6.44c0,0,2.82-1.52,5.4-1.14Z"/>
      <path class="cls-8" d="M177.26,221.33c.35-.19.76-.4,1.16-.58.41-.17.81-.36,1.23-.5.42-.16.84-.29,1.28-.4.22-.05.44-.11.67-.14.11-.03.22-.05.38-.06.14-.02.27-.05.37-.07.02-.02.03-.09.02-.09v-.03s0-.06,0-.06v-.11s-.01-.22-.01-.22l-.02-.44c-.02-.3-.04-.59-.07-.89-.06-.59-.14-1.18-.25-1.77-.12-.59-.24-1.18-.56-1.78-.08-.15-.18-.3-.32-.45-.14-.14-.34-.3-.62-.33-.14-.03-.27,0-.4.02-.1.04-.24.08-.31.14-.18.11-.32.25-.43.37-.86.94-1.46,2.02-1.98,3.12-.52,1.11-.99,2.21-1.26,3.43l-.37,1.69,1.49-.83ZM180.09,214.55c.15-.2.31-.31.33-.29.03-.04.23.11.36.32.28.43.49.98.66,1.52.17.55.32,1.12.44,1.69l.18.86.08.43.04.22.02.11v.03c-.11-.04-.2-.09-.28-.13-.07-.05-.19-.07-.32-.1-.24-.06-.49-.09-.73-.11-.49-.04-.99-.03-1.49.03-.46.07-.92.15-1.36.28.16-.63.34-1.26.55-1.87.38-1.07.85-2.12,1.51-2.98Z"/>
    </g>
    <g>
      <path class="cls-5" d="M197.16,214.19s-.65-7.44-2.53-5.31-2.87,6.44-2.87,6.44c0,0,2.82-1.52,5.4-1.14Z"/>
      <path class="cls-8" d="M192.13,216.01c.35-.19.76-.4,1.16-.58.41-.17.81-.36,1.23-.5.42-.16.84-.29,1.28-.4.22-.05.44-.11.67-.14.11-.03.22-.05.38-.06.14-.02.27-.05.37-.07.02-.02.03-.09.02-.09v-.03s0-.06,0-.06v-.11s-.01-.22-.01-.22l-.02-.44c-.02-.3-.04-.59-.07-.89-.06-.59-.14-1.18-.25-1.77-.12-.59-.24-1.18-.56-1.78-.08-.15-.18-.3-.32-.45-.14-.14-.34-.3-.62-.33-.14-.03-.27,0-.4.02-.1.04-.24.08-.31.14-.18.11-.32.25-.43.37-.86.94-1.46,2.02-1.98,3.12-.52,1.11-.99,2.21-1.26,3.43l-.37,1.69,1.49-.83ZM194.95,209.23c.15-.2.31-.31.33-.29.03-.04.23.11.36.32.28.43.49.98.66,1.52.17.55.32,1.12.44,1.69l.18.86.08.43.04.22.02.11v.03c-.11-.04-.2-.09-.28-.13-.07-.05-.19-.07-.32-.1-.24-.06-.49-.09-.73-.11-.49-.04-.99-.03-1.49.03-.46.07-.92.15-1.36.28.16-.63.34-1.26.55-1.87.38-1.07.85-2.12,1.51-2.98Z"/>
    </g>
    <path class="cls-10" d="M122.49,221.56l9.51-39.47s.14,42.19,7.14,43.74c-2.45.12-4.29.77-5.65,1.49-2.41,1.29-3.61,2.99-4.8,2.54-.79-.3-.93-1.3-1.36-2.45-.6-1.58-1.86-3.72-4.84-5.86Z"/>
    <path class="cls-10" d="M96.69,207.61s3.87-17.84,8.76-22.33c0,0,3.66,30.27,3.78,32.01.12,1.74-2.78-.45-2.78-.45l-9.25,3.8-.51-13.03Z"/>
    <path class="cls-8" d="M133.6,226.72c-1.03.36-2.02.82-2.97,1.38-.48.28-.93.6-1.37.92-.07.06-.13.09-.18.12-.05-.08-.14-.26-.22-.47l-.35-.78c-.14-.25-.27-.51-.41-.76-.16-.24-.3-.49-.47-.72-.66-.94-1.42-1.78-2.24-2.53-1.63-1.53-3.46-2.73-5.23-3.87l-.73-.47-.77.53-1.68,1.15-.13-.44c-.56-1.88-1.14-3.75-1.72-5.62l-.65-2.09-1.73,1.37c-.97.76-1.91,1.54-2.87,2.32l-.66.54c-.03-.44-.05-.88-.08-1.31l-.18-2.45-1.97,1.34c-.81.55-1.63,1.08-2.46,1.59-.83.52-1.68,1.01-2.52,1.5-1.31.77-2.65,1.48-4.01,2.16-.13-.76-.25-1.52-.35-2.29-.16-1.24-.3-2.48-.41-3.73-.22-2.5-.34-5.02-.37-7.55-.07.35-.13.7-.19,1.05-.13.78-.24,1.55-.34,2.34v.06c-.17,1.37-.28,2.75-.33,4.14-.06,1.27-.08,2.56-.03,3.84.04,1.28.11,2.56.21,3.84l.12,1.32,1.32-.52c1.88-.74,3.74-1.55,5.56-2.45.91-.45,1.8-.93,2.69-1.42.19-.11.36-.22.55-.32.02.62.03,1.23.06,1.85l.12,2.84,2.25-1.77,2.89-2.28c.39-.31.79-.62,1.18-.93.37,1.17.75,2.35,1.13,3.52l.48,1.46c.08.19.18.44.43.75.25.31.72.61,1.2.67.48.07.86-.05,1.11-.15.26-.11.44-.23.58-.33l1.68-1.26c1.52.9,2.99,1.81,4.31,2.86.77.62,1.48,1.29,2.09,2.04.3.37.58.76.84,1.16l.37.63c.14.26.29.55.58.87.15.16.35.33.62.45.28.12.6.16.89.1.59-.13.86-.43,1.06-.6.37-.34.75-.66,1.15-.97.79-.62,1.65-1.16,2.56-1.62.37-.19.75-.37,1.13-.53.13-.06.26-.11.39-.16.01,0,.02,0,.03-.01.03-.01.08-.03.14-.06.01,0,.02,0,.02,0,.11-.05.26-.1.44-.17.05-.02.09-.04.14-.05,1.12-.39,2.3-.66,3.5-.82h0s.09-.02.14-.02c-2.11-.17-4.28.12-6.33.84ZM128.96,229.18s.03,0,.05,0c-.05.02-.08.03-.05,0Z"/>
    <path class="cls-10" d="M78.7,211.53s8.3-26.74,26.08-35.62c0,0-25.24-5.56-38.04,12.81,0,0,.24,12.45,1.33,15.25,0,0,3.93-11.63,11.36-16.28,0,0-9.18,11.65-.73,23.83Z"/>
    <path class="cls-2" d="M89.79,155.4s-23.89,10.23-19.13,40.42l-1.83,7.27-3.15-9.34s-1.24-18.04,3.72-22.34c4.96-4.3,3.16-11.86,20.39-16Z"/>
    <path class="cls-10" d="M117.28,94.81s17.9-8.89,35.31-7.1c0,0-8.5-6.73-22.59-5.16,0,0,8.4-6.88,30.88-2.06-3.38-2.06-10.12-5.49-19.01-5.46-3.5,0-6.54.55-8.97,1.21.66-.33,2.64-1.45,3.57-3.8.82-2.08.73-4.94-.28-5.33-1.01-.39-1.61,2.2-5.4,4.93-2.34,1.68-4.76,2.61-7.21,5.75,0,0,0,0,0,0,0,0-5.96,10.14-6.28,17.01Z"/>
    <path class="cls-10" d="M57.36,164.39c4.21-2.29,9.32-4.54,15.31-6.21,18.64-5.17,34.92-1.6,43.45,1.01,0,0-2.94-10.08-12.9-16.23-2.18-1.35-8.48-5.19-17.13-4.65-6.16.38-10.52,2.79-12.4,3.85-11.57,6.55-15.38,18.77-16.33,22.22Z"/>
    <path class="cls-2" d="M96.8,140.21c-.06.8-6.72-.46-14.3,2.23-6.85,2.43-11.36,6.99-16.39,12.08-3.54,3.58-6.12,6.9-7.86,9.33,1.36-3.37,2.71-6.74,4.07-10.11l7.95-10.17,10.93-4.98c2.24-.21,4.47-.41,6.71-.62,7.29,1.16,8.92,1.83,8.89,2.23Z"/>
    <path class="cls-8" d="M185.77,84.61c-.01-.1-.02-.19-.03-.28-.02-.24-.08-.48-.12-.71-.06-.23-.12-.46-.19-.69-.31-.9-.82-1.75-1.52-2.36-.69-.61-1.49-1.03-2.32-1.26-.32-.11-.64-.16-.96-.21-.68-.5-1.43-.9-2.25-1.21-.96-.99-2.02-1.9-3.15-2.7-1.44-1.01-3-1.85-4.65-2.5-.83-.33-1.67-.6-2.51-.85-.84-.25-1.7-.48-2.56-.67-1.2-.26-2.41-.45-3.64-.58h0c0-.05-.57-.09-1.7-.12.02-.03.04-.05.05-.07.46-.7.83-1.46,1.11-2.26.59-1.58.9-3.24,1.08-4.89.2-1.65.23-3.32.21-4.98-.03-1.67-.15-3.3-.37-4.99l-.57-4.27-1.69,4.18-.07.18c-.03.08-.07.16-.11.24-.08.16-.16.32-.25.47-.18.32-.4.63-.62.93-.39.51-.83.99-1.31,1.43-.64-3.31-1.7-5.72-2.51-7.24-.8-1.5-1.78-2.94-2.3-3.7-.82-1.2-1.7-2.35-2.59-3.48l-2.71-3.33c-.44-.56-.89-1.11-1.29-1.67-.21-.27-.42-.55-.6-.82l-.28-.42c-.09-.14-.15-.27-.23-.41-.32-.53-.49-1.11-.64-1.69-.1-.59-.15-1.18-.08-1.78.07-.6.23-1.19.44-1.78.11-.29.24-.57.38-.84.07-.14.15-.27.22-.4.08-.13.17-.27.22-.34l1.76-2.39-2.87.45c-.4.06-.64.13-.93.21-.28.08-.55.18-.81.28-.53.21-1.03.45-1.52.71-.97.54-1.87,1.18-2.69,1.9-1.64,1.44-2.93,3.2-4,5.03-2.09,3.68-3.33,7.74-3.92,11.83-.58,4.1-.61,8.22-.26,12.29.16,2.04.46,4.05.81,6.05.3,1.59.65,3.17,1.08,4.73-.81.67-1.64,1.33-2.49,1.98-1.91,1.26-3.76,2.64-5.29,4.35-.83.82-1.5,1.77-2.22,2.68-.63.97-1.3,1.92-1.8,2.95-.56,1.01-1.01,2.07-1.44,3.12l-.56,1.62-.47,1.64c-.38,1.59-.65,3.2-.73,4.82l-.89-1.43c-1.87-2.01-3.82-3.87-5.86-5.67-2.43-2.13-4.96-4.14-7.59-6.02-5.27-3.74-10.92-6.98-16.94-9.41-3-1.22-6.09-2.27-9.25-3.04l-1.18-.3-1.19-.25c-.8-.16-1.59-.34-2.4-.47l-2.41-.36c-.81-.14-1.62-.17-2.43-.26-1.62-.2-3.25-.18-4.88-.26l-2.45.06c-.41.02-.82.02-1.22.04l-1.22.11c-.81.08-1.62.13-2.44.22l-2.42.36c-.41.07-.81.11-1.21.19l-1.2.26-2.39.52-1.28.28.5,1.26c2.52,6.39,4.97,12.84,7.3,19.3,1.16,3.23,2.3,6.49,3.35,9.73,1.01,3.25,1.93,6.59,2.97,9.9,1.04,3.31,2.2,6.6,3.6,9.82,1.4,3.21,3.04,6.35,5.05,9.28,2.01,2.92,4.42,5.63,7.28,7.82,1.41,1.12,2.97,2.04,4.58,2.86.09.05.19.09.28.13-.09.03-.19.04-.28.07-1.75.45-3.43,1.07-5.04,1.86-3.21,1.56-6.11,3.72-8.59,6.24-2.51,2.5-4.58,5.38-6.35,8.4-1.77,3.02-3.2,6.21-4.4,9.48l-.9,2.47,2.4-1.06c2.04-.9,4.17-1.73,6.3-2.49,2.14-.76,4.3-1.44,6.48-2.06,2.18-.63,4.38-1.14,6.6-1.59.64-.13,1.29-.25,1.94-.36-.63.42-1.25.85-1.85,1.31-1.9,1.45-3.64,3.11-5.2,4.92-3.13,3.64-5.42,7.98-6.78,12.58-.67,2.31-1.08,4.68-1.33,7.06-.07,1.19-.2,2.39-.18,3.58,0,.6-.02,1.19,0,1.79l.1,1.79c.28,4.76,1.23,9.44,2.59,13.97l1.29,4.3,1.47-4.3h0c.49-1.43.99-2.85,1.51-4.26.53-1.41,1.13-2.8,1.79-4.15,1.32-2.7,2.87-5.31,4.78-7.62.1-.12.2-.23.3-.35-.22.3-.42.61-.62.92-.86,1.37-1.53,2.85-2.04,4.38-.5,1.53-.83,3.12-.98,4.73-.16,1.61-.14,3.25.1,4.85.43,3.21,1.6,6.32,3.35,9.05l.92,1.45.85-1.49c.42-.74.98-1.53,1.54-2.26.58-.73,1.21-1.41,1.86-2.07,1.31-1.32,2.8-2.45,4.44-3.3,1.64-.86,3.45-1.41,5.32-1.57,1.41-.14,2.85-.04,4.29.22h0c.06.02.11.03.17.04.42.08.83.16,1.25.26-1.77-.83-3.72-1.34-5.73-1.41-2.01-.06-4.05.33-5.92,1.13-1.89.77-3.58,1.95-5.1,3.29-.76.67-1.45,1.41-2.11,2.18-.29.35-.57.7-.84,1.05-2.49-4.75-3.24-10.41-1.75-15.63.42-1.42.97-2.81,1.71-4.1.73-1.29,1.63-2.49,2.66-3.58,2.06-2.19,4.61-3.91,7.37-5.18.35-.16.69-.32,1.04-.46l.53-.22.27-.11.15-.06c.06-.03.09-.04.22-.12,0,0,.04-.02.1-.08.02-.02.23-.13.16-.66-.09-.2-.17-.24-.31-.33-.12-.06-.23-.07-.26-.07-.06,0-.14,0-.17,0-.07.01-.14.02-.19.03-.12.02-.22.04-.32.06-.2.05-.4.1-.59.15-.39.11-.77.23-1.15.35-1.5.51-2.95,1.16-4.35,1.9-2.79,1.49-5.4,3.39-7.6,5.73-2.21,2.31-4.07,4.93-5.63,7.7-.77,1.38-1.49,2.81-2.14,4.26-.04.09-.08.17-.11.26-.75-2.99-1.29-6.02-1.53-9.08l-.12-1.69c-.03-.56-.02-1.13-.03-1.69-.05-1.13.06-2.25.1-3.38.2-2.24.54-4.46,1.12-6.63,1.19-4.32,3.24-8.41,6.12-11.87,1.43-1.74,3.04-3.32,4.8-4.73.88-.7,1.8-1.36,2.75-1.97.94-.6,1.95-1.17,2.91-1.6h0s5.26-2.3,5.26-2.3l-5.68.54c-2.32.22-4.62.5-6.9.93-2.28.42-4.54.92-6.78,1.53-2.24.6-4.45,1.26-6.64,2-1.37.47-2.72.95-4.06,1.47.96-2.31,2.07-4.55,3.34-6.69,1.72-2.86,3.7-5.57,6.05-7.89,2.33-2.34,5.02-4.3,7.97-5.71,1.47-.7,3.01-1.28,4.58-1.68.78-.2,1.58-.36,2.38-.47.4-.06.8-.1,1.19-.13.38-.03.82-.04,1.12-.03l9.85.38-9.45-2.81c-1.57-.47-3.13-1.01-4.59-1.75-1.46-.75-2.88-1.59-4.17-2.62-2.61-2.01-4.84-4.51-6.74-7.26-3.8-5.53-6.24-11.95-8.34-18.44-1.04-3.26-1.97-6.56-3.02-9.89-1.08-3.31-2.24-6.55-3.42-9.8-2.22-6.07-4.53-12.09-6.92-18.08l1.02-.23,1.15-.26c.39-.08.77-.13,1.16-.19l2.33-.37c.78-.09,1.56-.15,2.34-.23l1.17-.12c.39-.03.78-.03,1.17-.04l2.36-.08c1.56.06,3.14.03,4.7.21.78.08,1.57.1,2.35.23l2.34.33c.78.12,1.54.29,2.32.43l1.16.23,1.15.28c3.06.72,6.07,1.71,9,2.87,5.88,2.31,11.43,5.44,16.63,9.06,2.59,1.82,5.1,3.77,7.5,5.84,2.39,2.07,4.71,4.28,6.8,6.6l1.08,1.2.35-1.48v-.02c.42-1.7.95-3.35,1.61-4.94l.64-1.5.72-1.46c.52-.95,1.01-1.91,1.62-2.8.56-.92,1.24-1.75,1.87-2.61.72-.79,1.36-1.64,2.16-2.36,1.47-1.54,3.21-2.77,4.96-3.96l.09-.06h.02c1.51-1.19,3-2.42,4.39-3.82.69-.71,1.36-1.44,1.96-2.28.06-.07.1-.15.16-.22.02.17.05.33.07.5.13,1.06.14,2.15-.06,3.18-.18,1.04-.57,2.06-1.23,2.91-.32.44-.71.83-1.15,1.17-.43.36-.92.63-1.43.91.64-.15,1.28-.38,1.89-.71.62-.26,1.23-.54,1.82-.89.93-.54,1.77-1.32,2.42-2.16l1.95-2.47c.32-.41.65-.8.98-1.2.34-.39.67-.79,1.02-1.13.71-.7,1.45-1.37,2.26-1.96.8-.59,1.65-1.12,2.52-1.61.88-.48,1.77-.93,2.7-1.32.9-.39,1.89-.75,2.77-1l.12-.04.08-.04,1.2-.6c.39-.23.79-.44,1.17-.69.76-.49,1.49-1.04,2.17-1.67.5-.47.97-.96,1.4-1.5.06.47.11.93.16,1.39.17,1.59.24,3.18.25,4.77,0,.8-.03,1.59-.1,2.38-.06.79-.16,1.58-.32,2.35-.28,1.36-.72,2.72-1.59,3.85l-.47.47,1.8-.04c1.69-.04,3.39.05,5.08.29.85.12,1.68.27,2.52.45.84.18,1.67.38,2.49.63,1.63.49,3.21,1.19,4.69,2.06,1.1.64,2.15,1.38,3.14,2.2-.18-.07-.36-.13-.54-.18-.92-.24-1.89-.35-2.87-.27-.98.09-1.95.36-2.83.77-1.79.83-3.18,2.22-4.17,3.75-.98,1.54-1.65,3.25-1.81,5.04,1.11-1.38,2.19-2.67,3.34-3.81,1.15-1.13,2.37-2.09,3.71-2.71.66-.32,1.35-.54,2.07-.68.72-.14,1.47-.17,2.24-.15,1.55.08,3.17.47,4.9.92.32.28.59.58.81.91.39.59.58,1.27.62,1.95v.51c-.01.17-.01.34-.04.51-.03.17-.06.33-.1.5-.04.15-.09.34-.13.41l.08.02,1.44.33h0l.92.22c.02-.18.03-.32.03-.45,0-.11,0-.22,0-.34,0-.15-.01-.29-.03-.44ZM157.4,56.66c-.57.52-1.2.97-1.86,1.4-.32.22-.67.41-1.01.61l-1.01.52c-1.06.33-1.99.72-2.94,1.16-.99.48-1.95,1-2.86,1.6-.92.59-1.79,1.26-2.61,2-.81.73-1.58,1.52-2.25,2.4-.66.89-1.25,1.74-1.84,2.63-.58.88-1.1,1.81-1.65,2.67-.43.69-.9,1.31-1.48,1.87.51-.67.9-1.43,1.16-2.22.38-1.17.52-2.39.53-3.6,0-.61-.05-1.21-.13-1.81-.08-.61-.17-1.17-.34-1.82l-.74-2.85-1.18,2.84c-.3.72-.75,1.43-1.31,2.1-.56.67-1.18,1.31-1.85,1.93-.51.48-1.04.93-1.58,1.39-.2-1.56-.35-3.12-.46-4.69-.09-1-.13-2.01-.17-3.01-.02-1-.07-2.01-.06-3,0-4,.25-7.99.99-11.87.69-3.88,2.04-7.61,3.94-10.95.98-1.64,2.15-3.16,3.54-4.39.65-.59,1.36-1.1,2.11-1.54-.14.54-.24,1.1-.29,1.67-.07.83.02,1.67.19,2.48.23.8.51,1.59.95,2.28.84,1.38,1.82,2.43,2.79,3.52l2.89,3.17c1.59,1.53,3.54,3.7,5.33,6.59,1.57,2.54,2.58,4.93,3.24,6.86-.03.03-.05.05-.07.07Z"/>
  </g>
</svg>